<mxfile host="app.diagrams.net" modified="2024-01-19T09:22:52.436Z" agent="Mozilla/5.0 (Windows NT 10.0; Win64; x64) AppleWebKit/537.36 (KHTML, like Gecko) Chrome/120.0.0.0 Safari/537.36" etag="7GexvBbN3a9QuWjsx3EH" version="22.1.20" type="google">
  <diagram id="C5RBs43oDa-KdzZeNtuy" name="Page-1">
    <mxGraphModel dx="2647" dy="4907" grid="1" gridSize="10" guides="1" tooltips="1" connect="1" arrows="1" fold="1" page="1" pageScale="1" pageWidth="827" pageHeight="1169" math="0" shadow="0">
      <root>
        <mxCell id="WIyWlLk6GJQsqaUBKTNV-0" />
        <mxCell id="WIyWlLk6GJQsqaUBKTNV-1" parent="WIyWlLk6GJQsqaUBKTNV-0" />
        <mxCell id="CG7xUlLSYDaTCyctC1B8-40" value="" style="endArrow=ERmandOne;startArrow=ERmandOne;html=1;rounded=0;fontSize=12;startSize=8;endSize=8;curved=1;startFill=0;endFill=0;entryX=1;entryY=0.5;entryDx=0;entryDy=0;" parent="WIyWlLk6GJQsqaUBKTNV-1" source="CG7xUlLSYDaTCyctC1B8-27" target="ZF2hxtfzH086-gN3r0IA-191" edge="1">
          <mxGeometry width="50" height="50" relative="1" as="geometry">
            <mxPoint x="1164" y="-1435" as="sourcePoint" />
            <mxPoint x="1384" y="-1310" as="targetPoint" />
          </mxGeometry>
        </mxCell>
        <mxCell id="CG7xUlLSYDaTCyctC1B8-42" value="" style="edgeStyle=entityRelationEdgeStyle;fontSize=12;html=1;endArrow=ERoneToMany;startArrow=ERmandOne;rounded=0;entryX=1;entryY=0.25;entryDx=0;entryDy=0;" parent="WIyWlLk6GJQsqaUBKTNV-1" source="ZF2hxtfzH086-gN3r0IA-105" target="ZF2hxtfzH086-gN3r0IA-207" edge="1">
          <mxGeometry width="100" height="100" relative="1" as="geometry">
            <mxPoint x="1274" y="-1300" as="sourcePoint" />
            <mxPoint x="1374" y="-1400" as="targetPoint" />
          </mxGeometry>
        </mxCell>
        <mxCell id="CG7xUlLSYDaTCyctC1B8-43" value="" style="edgeStyle=entityRelationEdgeStyle;fontSize=12;html=1;endArrow=ERoneToMany;startArrow=ERmandOne;rounded=0;exitX=1;exitY=0.5;exitDx=0;exitDy=0;" parent="WIyWlLk6GJQsqaUBKTNV-1" source="CG7xUlLSYDaTCyctC1B8-37" target="ZF2hxtfzH086-gN3r0IA-207" edge="1">
          <mxGeometry width="100" height="100" relative="1" as="geometry">
            <mxPoint x="1554" y="-1290" as="sourcePoint" />
            <mxPoint x="1424" y="-1340" as="targetPoint" />
          </mxGeometry>
        </mxCell>
        <mxCell id="CG7xUlLSYDaTCyctC1B8-44" value="" style="edgeStyle=entityRelationEdgeStyle;fontSize=12;html=1;endArrow=ERoneToMany;startArrow=ERmandOne;rounded=0;" parent="WIyWlLk6GJQsqaUBKTNV-1" source="ZF2hxtfzH086-gN3r0IA-118" target="ZF2hxtfzH086-gN3r0IA-207" edge="1">
          <mxGeometry width="100" height="100" relative="1" as="geometry">
            <mxPoint x="2054" y="-1370" as="sourcePoint" />
            <mxPoint x="1624" y="-1411" as="targetPoint" />
          </mxGeometry>
        </mxCell>
        <mxCell id="CG7xUlLSYDaTCyctC1B8-27" value="Order history" style="shape=table;startSize=30;container=1;collapsible=1;childLayout=tableLayout;fixedRows=1;rowLines=0;fontStyle=1;align=center;resizeLast=1;html=1;fontSize=16;" parent="WIyWlLk6GJQsqaUBKTNV-1" vertex="1">
          <mxGeometry x="1164" y="-1500" width="180" height="90" as="geometry" />
        </mxCell>
        <mxCell id="CG7xUlLSYDaTCyctC1B8-28" value="" style="shape=tableRow;horizontal=0;startSize=0;swimlaneHead=0;swimlaneBody=0;fillColor=none;collapsible=0;dropTarget=0;points=[[0,0.5],[1,0.5]];portConstraint=eastwest;top=0;left=0;right=0;bottom=1;fontSize=16;" parent="CG7xUlLSYDaTCyctC1B8-27" vertex="1">
          <mxGeometry y="30" width="180" height="30" as="geometry" />
        </mxCell>
        <mxCell id="CG7xUlLSYDaTCyctC1B8-29" value="PK" style="shape=partialRectangle;connectable=0;fillColor=none;top=0;left=0;bottom=0;right=0;fontStyle=1;overflow=hidden;whiteSpace=wrap;html=1;fontSize=16;" parent="CG7xUlLSYDaTCyctC1B8-28" vertex="1">
          <mxGeometry width="30" height="30" as="geometry">
            <mxRectangle width="30" height="30" as="alternateBounds" />
          </mxGeometry>
        </mxCell>
        <mxCell id="CG7xUlLSYDaTCyctC1B8-30" value="id history" style="shape=partialRectangle;connectable=0;fillColor=none;top=0;left=0;bottom=0;right=0;align=left;spacingLeft=6;fontStyle=5;overflow=hidden;whiteSpace=wrap;html=1;fontSize=16;" parent="CG7xUlLSYDaTCyctC1B8-28" vertex="1">
          <mxGeometry x="30" width="150" height="30" as="geometry">
            <mxRectangle width="150" height="30" as="alternateBounds" />
          </mxGeometry>
        </mxCell>
        <mxCell id="CG7xUlLSYDaTCyctC1B8-37" value="" style="shape=tableRow;horizontal=0;startSize=0;swimlaneHead=0;swimlaneBody=0;fillColor=none;collapsible=0;dropTarget=0;points=[[0,0.5],[1,0.5]];portConstraint=eastwest;top=0;left=0;right=0;bottom=0;fontSize=16;" parent="CG7xUlLSYDaTCyctC1B8-27" vertex="1">
          <mxGeometry y="60" width="180" height="30" as="geometry" />
        </mxCell>
        <mxCell id="CG7xUlLSYDaTCyctC1B8-38" value="" style="shape=partialRectangle;connectable=0;fillColor=none;top=0;left=0;bottom=0;right=0;editable=1;overflow=hidden;whiteSpace=wrap;html=1;fontSize=16;" parent="CG7xUlLSYDaTCyctC1B8-37" vertex="1">
          <mxGeometry width="30" height="30" as="geometry">
            <mxRectangle width="30" height="30" as="alternateBounds" />
          </mxGeometry>
        </mxCell>
        <mxCell id="CG7xUlLSYDaTCyctC1B8-39" value="" style="shape=partialRectangle;connectable=0;fillColor=none;top=0;left=0;bottom=0;right=0;align=left;spacingLeft=6;overflow=hidden;whiteSpace=wrap;html=1;fontSize=16;" parent="CG7xUlLSYDaTCyctC1B8-37" vertex="1">
          <mxGeometry x="30" width="150" height="30" as="geometry">
            <mxRectangle width="150" height="30" as="alternateBounds" />
          </mxGeometry>
        </mxCell>
        <mxCell id="0Psu9CxGxU2CyEVmyjhO-45" value="" style="edgeStyle=entityRelationEdgeStyle;fontSize=12;html=1;endArrow=ERmandOne;startArrow=ERmandOne;rounded=0;entryX=1;entryY=0.25;entryDx=0;entryDy=0;" parent="WIyWlLk6GJQsqaUBKTNV-1" source="ZF2hxtfzH086-gN3r0IA-16" target="CG7xUlLSYDaTCyctC1B8-27" edge="1">
          <mxGeometry width="100" height="100" relative="1" as="geometry">
            <mxPoint x="1264" y="-1380" as="sourcePoint" />
            <mxPoint x="1254" y="-1390" as="targetPoint" />
          </mxGeometry>
        </mxCell>
        <mxCell id="XdSTU6Jku33HvT6-iugC-17" value="0" style="edgeLabel;html=1;align=center;verticalAlign=middle;resizable=0;points=[];" parent="0Psu9CxGxU2CyEVmyjhO-45" connectable="0" vertex="1">
          <mxGeometry x="0.824" relative="1" as="geometry">
            <mxPoint as="offset" />
          </mxGeometry>
        </mxCell>
        <mxCell id="0Psu9CxGxU2CyEVmyjhO-56" value="" style="fontSize=12;html=1;endArrow=ERmandOne;startArrow=ERmandOne;rounded=0;entryX=-0.009;entryY=0.322;entryDx=0;entryDy=0;entryPerimeter=0;" parent="WIyWlLk6GJQsqaUBKTNV-1" source="ZF2hxtfzH086-gN3r0IA-159" target="ZF2hxtfzH086-gN3r0IA-185" edge="1">
          <mxGeometry width="100" height="100" relative="1" as="geometry">
            <mxPoint x="714" y="-1490" as="sourcePoint" />
            <mxPoint x="874" y="-1455" as="targetPoint" />
          </mxGeometry>
        </mxCell>
        <mxCell id="XdSTU6Jku33HvT6-iugC-24" value="0" style="edgeLabel;html=1;align=center;verticalAlign=middle;resizable=0;points=[];" parent="0Psu9CxGxU2CyEVmyjhO-56" connectable="0" vertex="1">
          <mxGeometry x="0.7705" y="2" relative="1" as="geometry">
            <mxPoint x="-11" y="-2" as="offset" />
          </mxGeometry>
        </mxCell>
        <mxCell id="0Psu9CxGxU2CyEVmyjhO-67" value="" style="fontSize=12;html=1;endArrow=ERmandOne;startArrow=ERmandOne;rounded=0;entryX=0.5;entryY=0;entryDx=0;entryDy=0;" parent="WIyWlLk6GJQsqaUBKTNV-1" source="BdoXRXtc4Kc0ySHsWEAi-3" target="eji1tCNYbOfeHdif-Vnv-46" edge="1">
          <mxGeometry width="100" height="100" relative="1" as="geometry">
            <mxPoint x="1124.0000000000002" y="-2260" as="sourcePoint" />
            <mxPoint x="1124" y="-2000" as="targetPoint" />
          </mxGeometry>
        </mxCell>
        <mxCell id="ZF2hxtfzH086-gN3r0IA-257" value="o" style="edgeLabel;html=1;align=center;verticalAlign=middle;resizable=0;points=[];" parent="0Psu9CxGxU2CyEVmyjhO-67" connectable="0" vertex="1">
          <mxGeometry x="0.5886" relative="1" as="geometry">
            <mxPoint x="-1" y="7" as="offset" />
          </mxGeometry>
        </mxCell>
        <mxCell id="0Psu9CxGxU2CyEVmyjhO-73" value="" style="edgeStyle=orthogonalEdgeStyle;fontSize=12;html=1;endArrow=ERoneToMany;startArrow=ERmandOne;rounded=0;elbow=vertical;exitX=0.5;exitY=0;exitDx=0;exitDy=0;" parent="WIyWlLk6GJQsqaUBKTNV-1" source="ZF2hxtfzH086-gN3r0IA-105" target="ZF2hxtfzH086-gN3r0IA-3" edge="1">
          <mxGeometry width="100" height="100" relative="1" as="geometry">
            <mxPoint x="1864" y="-1520" as="sourcePoint" />
            <mxPoint x="2274" y="-1400" as="targetPoint" />
          </mxGeometry>
        </mxCell>
        <mxCell id="0Psu9CxGxU2CyEVmyjhO-74" value="" style="edgeStyle=entityRelationEdgeStyle;fontSize=12;html=1;endArrow=ERmandOne;startArrow=ERmandOne;rounded=0;" parent="WIyWlLk6GJQsqaUBKTNV-1" source="ZF2hxtfzH086-gN3r0IA-105" target="ZF2hxtfzH086-gN3r0IA-38" edge="1">
          <mxGeometry width="100" height="100" relative="1" as="geometry">
            <mxPoint x="1864" y="-1410" as="sourcePoint" />
            <mxPoint x="1964" y="-1510" as="targetPoint" />
          </mxGeometry>
        </mxCell>
        <mxCell id="XdSTU6Jku33HvT6-iugC-10" value="0" style="edgeLabel;html=1;align=center;verticalAlign=middle;resizable=0;points=[];" parent="0Psu9CxGxU2CyEVmyjhO-74" connectable="0" vertex="1">
          <mxGeometry x="-0.5901" y="-2" relative="1" as="geometry">
            <mxPoint as="offset" />
          </mxGeometry>
        </mxCell>
        <mxCell id="0Psu9CxGxU2CyEVmyjhO-76" value="" style="edgeStyle=elbowEdgeStyle;fontSize=12;html=1;endArrow=ERoneToMany;startArrow=ERmandOne;rounded=0;entryX=0.5;entryY=0;entryDx=0;entryDy=0;elbow=vertical;" parent="WIyWlLk6GJQsqaUBKTNV-1" source="eji1tCNYbOfeHdif-Vnv-46" target="ZF2hxtfzH086-gN3r0IA-184" edge="1">
          <mxGeometry width="100" height="100" relative="1" as="geometry">
            <mxPoint x="1124.6999999999998" y="-1879.4899999999998" as="sourcePoint" />
            <mxPoint x="944" y="-1560" as="targetPoint" />
          </mxGeometry>
        </mxCell>
        <mxCell id="0Psu9CxGxU2CyEVmyjhO-78" value="" style="edgeStyle=entityRelationEdgeStyle;fontSize=12;html=1;endArrow=ERmandOne;startArrow=ERmandOne;rounded=0;exitX=1;exitY=0.5;exitDx=0;exitDy=0;" parent="WIyWlLk6GJQsqaUBKTNV-1" target="ZF2hxtfzH086-gN3r0IA-3" edge="1">
          <mxGeometry width="100" height="100" relative="1" as="geometry">
            <mxPoint x="1304" y="-1905" as="sourcePoint" />
            <mxPoint x="1674" y="-1800" as="targetPoint" />
          </mxGeometry>
        </mxCell>
        <mxCell id="XdSTU6Jku33HvT6-iugC-16" value="0" style="edgeLabel;html=1;align=center;verticalAlign=middle;resizable=0;points=[];" parent="0Psu9CxGxU2CyEVmyjhO-78" connectable="0" vertex="1">
          <mxGeometry x="0.7332" relative="1" as="geometry">
            <mxPoint as="offset" />
          </mxGeometry>
        </mxCell>
        <mxCell id="0Psu9CxGxU2CyEVmyjhO-79" value="" style="edgeStyle=orthogonalEdgeStyle;fontSize=12;html=1;endArrow=ERmandOne;startArrow=ERmandOne;rounded=0;elbow=vertical;exitX=1;exitY=0.5;exitDx=0;exitDy=0;entryX=0.5;entryY=0;entryDx=0;entryDy=0;" parent="WIyWlLk6GJQsqaUBKTNV-1" source="eji1tCNYbOfeHdif-Vnv-50" target="ZF2hxtfzH086-gN3r0IA-38" edge="1">
          <mxGeometry width="100" height="100" relative="1" as="geometry">
            <mxPoint x="1354" y="-1980" as="sourcePoint" />
            <mxPoint x="2314" y="-1860.0000000000005" as="targetPoint" />
          </mxGeometry>
        </mxCell>
        <mxCell id="XdSTU6Jku33HvT6-iugC-5" value="0" style="edgeLabel;html=1;align=center;verticalAlign=middle;resizable=0;points=[];" parent="0Psu9CxGxU2CyEVmyjhO-79" connectable="0" vertex="1">
          <mxGeometry x="0.9251" y="1" relative="1" as="geometry">
            <mxPoint x="-10" y="1" as="offset" />
          </mxGeometry>
        </mxCell>
        <mxCell id="0Psu9CxGxU2CyEVmyjhO-80" value="" style="edgeStyle=orthogonalEdgeStyle;fontSize=12;html=1;endArrow=ERmandOne;startArrow=ERmandOne;rounded=0;elbow=vertical;exitX=1;exitY=0.25;exitDx=0;exitDy=0;" parent="WIyWlLk6GJQsqaUBKTNV-1" source="eji1tCNYbOfeHdif-Vnv-46" target="ZF2hxtfzH086-gN3r0IA-118" edge="1">
          <mxGeometry width="100" height="100" relative="1" as="geometry">
            <mxPoint x="1624" y="-2115" as="sourcePoint" />
            <mxPoint x="2414" y="-1682" as="targetPoint" />
          </mxGeometry>
        </mxCell>
        <mxCell id="XdSTU6Jku33HvT6-iugC-27" value="0" style="edgeLabel;html=1;align=center;verticalAlign=middle;resizable=0;points=[];" parent="0Psu9CxGxU2CyEVmyjhO-80" connectable="0" vertex="1">
          <mxGeometry x="0.9763" y="-1" relative="1" as="geometry">
            <mxPoint y="1" as="offset" />
          </mxGeometry>
        </mxCell>
        <mxCell id="BdoXRXtc4Kc0ySHsWEAi-2" value="" style="edgeStyle=elbowEdgeStyle;fontSize=12;html=1;endArrow=ERmandOne;startArrow=ERmandOne;rounded=0;" parent="WIyWlLk6GJQsqaUBKTNV-1" source="ZF2hxtfzH086-gN3r0IA-223" target="eji1tCNYbOfeHdif-Vnv-46" edge="1">
          <mxGeometry width="100" height="100" relative="1" as="geometry">
            <mxPoint x="744" y="-1630" as="sourcePoint" />
            <mxPoint x="1054" y="-1940" as="targetPoint" />
            <Array as="points">
              <mxPoint x="414" y="-1670" />
            </Array>
          </mxGeometry>
        </mxCell>
        <mxCell id="XdSTU6Jku33HvT6-iugC-28" value="0" style="edgeLabel;html=1;align=center;verticalAlign=middle;resizable=0;points=[];" parent="BdoXRXtc4Kc0ySHsWEAi-2" connectable="0" vertex="1">
          <mxGeometry x="-0.9649" y="3" relative="1" as="geometry">
            <mxPoint as="offset" />
          </mxGeometry>
        </mxCell>
        <mxCell id="BdoXRXtc4Kc0ySHsWEAi-3" value="people" style="shape=table;startSize=30;container=1;collapsible=1;childLayout=tableLayout;fixedRows=1;rowLines=0;fontStyle=1;align=center;resizeLast=1;html=1;" parent="WIyWlLk6GJQsqaUBKTNV-1" vertex="1">
          <mxGeometry x="1074" y="-2670" width="200" height="490" as="geometry" />
        </mxCell>
        <mxCell id="BdoXRXtc4Kc0ySHsWEAi-4" value="" style="shape=tableRow;horizontal=0;startSize=0;swimlaneHead=0;swimlaneBody=0;fillColor=none;collapsible=0;dropTarget=0;points=[[0,0.5],[1,0.5]];portConstraint=eastwest;top=0;left=0;right=0;bottom=1;" parent="BdoXRXtc4Kc0ySHsWEAi-3" vertex="1">
          <mxGeometry y="30" width="200" height="30" as="geometry" />
        </mxCell>
        <mxCell id="BdoXRXtc4Kc0ySHsWEAi-5" value="pk" style="shape=partialRectangle;connectable=0;fillColor=none;top=0;left=0;bottom=0;right=0;fontStyle=1;overflow=hidden;whiteSpace=wrap;html=1;" parent="BdoXRXtc4Kc0ySHsWEAi-4" vertex="1">
          <mxGeometry width="89.99999999999977" height="30" as="geometry">
            <mxRectangle width="89.99999999999977" height="30" as="alternateBounds" />
          </mxGeometry>
        </mxCell>
        <mxCell id="BdoXRXtc4Kc0ySHsWEAi-6" value="id people" style="shape=partialRectangle;connectable=0;fillColor=none;top=0;left=0;bottom=0;right=0;align=left;spacingLeft=6;fontStyle=5;overflow=hidden;whiteSpace=wrap;html=1;" parent="BdoXRXtc4Kc0ySHsWEAi-4" vertex="1">
          <mxGeometry x="89.99999999999977" width="110.00000000000023" height="30" as="geometry">
            <mxRectangle width="110.00000000000023" height="30" as="alternateBounds" />
          </mxGeometry>
        </mxCell>
        <mxCell id="BdoXRXtc4Kc0ySHsWEAi-7" value="" style="shape=tableRow;horizontal=0;startSize=0;swimlaneHead=0;swimlaneBody=0;fillColor=none;collapsible=0;dropTarget=0;points=[[0,0.5],[1,0.5]];portConstraint=eastwest;top=0;left=0;right=0;bottom=0;" parent="BdoXRXtc4Kc0ySHsWEAi-3" vertex="1">
          <mxGeometry y="60" width="200" height="30" as="geometry" />
        </mxCell>
        <mxCell id="BdoXRXtc4Kc0ySHsWEAi-8" value="varchar(12)" style="shape=partialRectangle;connectable=0;fillColor=none;top=0;left=0;bottom=0;right=0;editable=1;overflow=hidden;whiteSpace=wrap;html=1;" parent="BdoXRXtc4Kc0ySHsWEAi-7" vertex="1">
          <mxGeometry width="89.99999999999977" height="30" as="geometry">
            <mxRectangle width="89.99999999999977" height="30" as="alternateBounds" />
          </mxGeometry>
        </mxCell>
        <mxCell id="BdoXRXtc4Kc0ySHsWEAi-9" value="cccd" style="shape=partialRectangle;connectable=0;fillColor=none;top=0;left=0;bottom=0;right=0;align=left;spacingLeft=6;overflow=hidden;whiteSpace=wrap;html=1;" parent="BdoXRXtc4Kc0ySHsWEAi-7" vertex="1">
          <mxGeometry x="89.99999999999977" width="110.00000000000023" height="30" as="geometry">
            <mxRectangle width="110.00000000000023" height="30" as="alternateBounds" />
          </mxGeometry>
        </mxCell>
        <mxCell id="eji1tCNYbOfeHdif-Vnv-6" value="" style="shape=tableRow;horizontal=0;startSize=0;swimlaneHead=0;swimlaneBody=0;fillColor=none;collapsible=0;dropTarget=0;points=[[0,0.5],[1,0.5]];portConstraint=eastwest;top=0;left=0;right=0;bottom=0;" parent="BdoXRXtc4Kc0ySHsWEAi-3" vertex="1">
          <mxGeometry y="90" width="200" height="30" as="geometry" />
        </mxCell>
        <mxCell id="eji1tCNYbOfeHdif-Vnv-7" value="varchar(500)" style="shape=partialRectangle;connectable=0;fillColor=none;top=0;left=0;bottom=0;right=0;editable=1;overflow=hidden;whiteSpace=wrap;html=1;" parent="eji1tCNYbOfeHdif-Vnv-6" vertex="1">
          <mxGeometry width="89.99999999999977" height="30" as="geometry">
            <mxRectangle width="89.99999999999977" height="30" as="alternateBounds" />
          </mxGeometry>
        </mxCell>
        <mxCell id="eji1tCNYbOfeHdif-Vnv-8" value="name&amp;nbsp;" style="shape=partialRectangle;connectable=0;fillColor=none;top=0;left=0;bottom=0;right=0;align=left;spacingLeft=6;overflow=hidden;whiteSpace=wrap;html=1;" parent="eji1tCNYbOfeHdif-Vnv-6" vertex="1">
          <mxGeometry x="89.99999999999977" width="110.00000000000023" height="30" as="geometry">
            <mxRectangle width="110.00000000000023" height="30" as="alternateBounds" />
          </mxGeometry>
        </mxCell>
        <mxCell id="BdoXRXtc4Kc0ySHsWEAi-10" value="" style="shape=tableRow;horizontal=0;startSize=0;swimlaneHead=0;swimlaneBody=0;fillColor=none;collapsible=0;dropTarget=0;points=[[0,0.5],[1,0.5]];portConstraint=eastwest;top=0;left=0;right=0;bottom=0;" parent="BdoXRXtc4Kc0ySHsWEAi-3" vertex="1">
          <mxGeometry y="120" width="200" height="30" as="geometry" />
        </mxCell>
        <mxCell id="BdoXRXtc4Kc0ySHsWEAi-11" value="date" style="shape=partialRectangle;connectable=0;fillColor=none;top=0;left=0;bottom=0;right=0;editable=1;overflow=hidden;whiteSpace=wrap;html=1;" parent="BdoXRXtc4Kc0ySHsWEAi-10" vertex="1">
          <mxGeometry width="89.99999999999977" height="30" as="geometry">
            <mxRectangle width="89.99999999999977" height="30" as="alternateBounds" />
          </mxGeometry>
        </mxCell>
        <mxCell id="BdoXRXtc4Kc0ySHsWEAi-12" value="DateOfBirth" style="shape=partialRectangle;connectable=0;fillColor=none;top=0;left=0;bottom=0;right=0;align=left;spacingLeft=6;overflow=hidden;whiteSpace=wrap;html=1;" parent="BdoXRXtc4Kc0ySHsWEAi-10" vertex="1">
          <mxGeometry x="89.99999999999977" width="110.00000000000023" height="30" as="geometry">
            <mxRectangle width="110.00000000000023" height="30" as="alternateBounds" />
          </mxGeometry>
        </mxCell>
        <mxCell id="ZF2hxtfzH086-gN3r0IA-31" value="" style="shape=tableRow;horizontal=0;startSize=0;swimlaneHead=0;swimlaneBody=0;fillColor=none;collapsible=0;dropTarget=0;points=[[0,0.5],[1,0.5]];portConstraint=eastwest;top=0;left=0;right=0;bottom=0;" parent="BdoXRXtc4Kc0ySHsWEAi-3" vertex="1">
          <mxGeometry y="150" width="200" height="50" as="geometry" />
        </mxCell>
        <mxCell id="ZF2hxtfzH086-gN3r0IA-32" value="char(1)" style="shape=partialRectangle;connectable=0;fillColor=none;top=0;left=0;bottom=0;right=0;editable=1;overflow=hidden;whiteSpace=wrap;html=1;" parent="ZF2hxtfzH086-gN3r0IA-31" vertex="1">
          <mxGeometry width="89.99999999999977" height="50" as="geometry">
            <mxRectangle width="89.99999999999977" height="50" as="alternateBounds" />
          </mxGeometry>
        </mxCell>
        <mxCell id="ZF2hxtfzH086-gN3r0IA-33" value="sex" style="shape=partialRectangle;connectable=0;fillColor=none;top=0;left=0;bottom=0;right=0;align=left;spacingLeft=6;overflow=hidden;whiteSpace=wrap;html=1;" parent="ZF2hxtfzH086-gN3r0IA-31" vertex="1">
          <mxGeometry x="89.99999999999977" width="110.00000000000023" height="50" as="geometry">
            <mxRectangle width="110.00000000000023" height="50" as="alternateBounds" />
          </mxGeometry>
        </mxCell>
        <mxCell id="BdoXRXtc4Kc0ySHsWEAi-13" value="" style="shape=tableRow;horizontal=0;startSize=0;swimlaneHead=0;swimlaneBody=0;fillColor=none;collapsible=0;dropTarget=0;points=[[0,0.5],[1,0.5]];portConstraint=eastwest;top=0;left=0;right=0;bottom=0;" parent="BdoXRXtc4Kc0ySHsWEAi-3" vertex="1">
          <mxGeometry y="200" width="200" height="30" as="geometry" />
        </mxCell>
        <mxCell id="BdoXRXtc4Kc0ySHsWEAi-14" value="varchar(500)" style="shape=partialRectangle;connectable=0;fillColor=none;top=0;left=0;bottom=0;right=0;editable=1;overflow=hidden;whiteSpace=wrap;html=1;" parent="BdoXRXtc4Kc0ySHsWEAi-13" vertex="1">
          <mxGeometry width="89.99999999999977" height="30" as="geometry">
            <mxRectangle width="89.99999999999977" height="30" as="alternateBounds" />
          </mxGeometry>
        </mxCell>
        <mxCell id="BdoXRXtc4Kc0ySHsWEAi-15" value="email" style="shape=partialRectangle;connectable=0;fillColor=none;top=0;left=0;bottom=0;right=0;align=left;spacingLeft=6;overflow=hidden;whiteSpace=wrap;html=1;" parent="BdoXRXtc4Kc0ySHsWEAi-13" vertex="1">
          <mxGeometry x="89.99999999999977" width="110.00000000000023" height="30" as="geometry">
            <mxRectangle width="110.00000000000023" height="30" as="alternateBounds" />
          </mxGeometry>
        </mxCell>
        <mxCell id="eji1tCNYbOfeHdif-Vnv-77" value="" style="shape=tableRow;horizontal=0;startSize=0;swimlaneHead=0;swimlaneBody=0;fillColor=none;collapsible=0;dropTarget=0;points=[[0,0.5],[1,0.5]];portConstraint=eastwest;top=0;left=0;right=0;bottom=0;" parent="BdoXRXtc4Kc0ySHsWEAi-3" vertex="1">
          <mxGeometry y="230" width="200" height="30" as="geometry" />
        </mxCell>
        <mxCell id="eji1tCNYbOfeHdif-Vnv-78" value="varchar(500)" style="shape=partialRectangle;connectable=0;fillColor=none;top=0;left=0;bottom=0;right=0;editable=1;overflow=hidden;whiteSpace=wrap;html=1;" parent="eji1tCNYbOfeHdif-Vnv-77" vertex="1">
          <mxGeometry width="89.99999999999977" height="30" as="geometry">
            <mxRectangle width="89.99999999999977" height="30" as="alternateBounds" />
          </mxGeometry>
        </mxCell>
        <mxCell id="eji1tCNYbOfeHdif-Vnv-79" value="delivery address" style="shape=partialRectangle;connectable=0;fillColor=none;top=0;left=0;bottom=0;right=0;align=left;spacingLeft=6;overflow=hidden;whiteSpace=wrap;html=1;" parent="eji1tCNYbOfeHdif-Vnv-77" vertex="1">
          <mxGeometry x="89.99999999999977" width="110.00000000000023" height="30" as="geometry">
            <mxRectangle width="110.00000000000023" height="30" as="alternateBounds" />
          </mxGeometry>
        </mxCell>
        <mxCell id="eji1tCNYbOfeHdif-Vnv-40" value="" style="shape=tableRow;horizontal=0;startSize=0;swimlaneHead=0;swimlaneBody=0;fillColor=none;collapsible=0;dropTarget=0;points=[[0,0.5],[1,0.5]];portConstraint=eastwest;top=0;left=0;right=0;bottom=0;" parent="BdoXRXtc4Kc0ySHsWEAi-3" vertex="1">
          <mxGeometry y="260" width="200" height="40" as="geometry" />
        </mxCell>
        <mxCell id="eji1tCNYbOfeHdif-Vnv-41" value="varchar(500)" style="shape=partialRectangle;connectable=0;fillColor=none;top=0;left=0;bottom=0;right=0;editable=1;overflow=hidden;whiteSpace=wrap;html=1;" parent="eji1tCNYbOfeHdif-Vnv-40" vertex="1">
          <mxGeometry width="89.99999999999977" height="40" as="geometry">
            <mxRectangle width="89.99999999999977" height="40" as="alternateBounds" />
          </mxGeometry>
        </mxCell>
        <mxCell id="eji1tCNYbOfeHdif-Vnv-42" value="image selfie address&amp;nbsp;" style="shape=partialRectangle;connectable=0;fillColor=none;top=0;left=0;bottom=0;right=0;align=left;spacingLeft=6;overflow=hidden;whiteSpace=wrap;html=1;" parent="eji1tCNYbOfeHdif-Vnv-40" vertex="1">
          <mxGeometry x="89.99999999999977" width="110.00000000000023" height="40" as="geometry">
            <mxRectangle width="110.00000000000023" height="40" as="alternateBounds" />
          </mxGeometry>
        </mxCell>
        <mxCell id="eji1tCNYbOfeHdif-Vnv-9" value="" style="shape=tableRow;horizontal=0;startSize=0;swimlaneHead=0;swimlaneBody=0;fillColor=none;collapsible=0;dropTarget=0;points=[[0,0.5],[1,0.5]];portConstraint=eastwest;top=0;left=0;right=0;bottom=0;" parent="BdoXRXtc4Kc0ySHsWEAi-3" vertex="1">
          <mxGeometry y="300" width="200" height="40" as="geometry" />
        </mxCell>
        <mxCell id="eji1tCNYbOfeHdif-Vnv-10" value="varchar(500)" style="shape=partialRectangle;connectable=0;fillColor=none;top=0;left=0;bottom=0;right=0;editable=1;overflow=hidden;whiteSpace=wrap;html=1;" parent="eji1tCNYbOfeHdif-Vnv-9" vertex="1">
          <mxGeometry width="89.99999999999977" height="40" as="geometry">
            <mxRectangle width="89.99999999999977" height="40" as="alternateBounds" />
          </mxGeometry>
        </mxCell>
        <mxCell id="eji1tCNYbOfeHdif-Vnv-11" value="image cccd front address&amp;nbsp;" style="shape=partialRectangle;connectable=0;fillColor=none;top=0;left=0;bottom=0;right=0;align=left;spacingLeft=6;overflow=hidden;whiteSpace=wrap;html=1;" parent="eji1tCNYbOfeHdif-Vnv-9" vertex="1">
          <mxGeometry x="89.99999999999977" width="110.00000000000023" height="40" as="geometry">
            <mxRectangle width="110.00000000000023" height="40" as="alternateBounds" />
          </mxGeometry>
        </mxCell>
        <mxCell id="eji1tCNYbOfeHdif-Vnv-12" value="" style="shape=tableRow;horizontal=0;startSize=0;swimlaneHead=0;swimlaneBody=0;fillColor=none;collapsible=0;dropTarget=0;points=[[0,0.5],[1,0.5]];portConstraint=eastwest;top=0;left=0;right=0;bottom=0;" parent="BdoXRXtc4Kc0ySHsWEAi-3" vertex="1">
          <mxGeometry y="340" width="200" height="50" as="geometry" />
        </mxCell>
        <mxCell id="eji1tCNYbOfeHdif-Vnv-13" value="varchar(500)" style="shape=partialRectangle;connectable=0;fillColor=none;top=0;left=0;bottom=0;right=0;editable=1;overflow=hidden;whiteSpace=wrap;html=1;" parent="eji1tCNYbOfeHdif-Vnv-12" vertex="1">
          <mxGeometry width="89.99999999999977" height="50" as="geometry">
            <mxRectangle width="89.99999999999977" height="50" as="alternateBounds" />
          </mxGeometry>
        </mxCell>
        <mxCell id="eji1tCNYbOfeHdif-Vnv-14" value="image cccd back address&amp;nbsp;" style="shape=partialRectangle;connectable=0;fillColor=none;top=0;left=0;bottom=0;right=0;align=left;spacingLeft=6;overflow=hidden;whiteSpace=wrap;html=1;" parent="eji1tCNYbOfeHdif-Vnv-12" vertex="1">
          <mxGeometry x="89.99999999999977" width="110.00000000000023" height="50" as="geometry">
            <mxRectangle width="110.00000000000023" height="50" as="alternateBounds" />
          </mxGeometry>
        </mxCell>
        <mxCell id="67xrL2uxjzPOoR2pSIKA-28" value="" style="shape=tableRow;horizontal=0;startSize=0;swimlaneHead=0;swimlaneBody=0;fillColor=none;collapsible=0;dropTarget=0;points=[[0,0.5],[1,0.5]];portConstraint=eastwest;top=0;left=0;right=0;bottom=0;" parent="BdoXRXtc4Kc0ySHsWEAi-3" vertex="1">
          <mxGeometry y="390" width="200" height="50" as="geometry" />
        </mxCell>
        <mxCell id="67xrL2uxjzPOoR2pSIKA-29" value="int" style="shape=partialRectangle;connectable=0;fillColor=none;top=0;left=0;bottom=0;right=0;editable=1;overflow=hidden;whiteSpace=wrap;html=1;" parent="67xrL2uxjzPOoR2pSIKA-28" vertex="1">
          <mxGeometry width="89.99999999999977" height="50" as="geometry">
            <mxRectangle width="89.99999999999977" height="50" as="alternateBounds" />
          </mxGeometry>
        </mxCell>
        <mxCell id="67xrL2uxjzPOoR2pSIKA-30" value="order number" style="shape=partialRectangle;connectable=0;fillColor=none;top=0;left=0;bottom=0;right=0;align=left;spacingLeft=6;overflow=hidden;whiteSpace=wrap;html=1;" parent="67xrL2uxjzPOoR2pSIKA-28" vertex="1">
          <mxGeometry x="89.99999999999977" width="110.00000000000023" height="50" as="geometry">
            <mxRectangle width="110.00000000000023" height="50" as="alternateBounds" />
          </mxGeometry>
        </mxCell>
        <mxCell id="bnzuN9o2RiYUYbp6fuS0-0" value="" style="shape=tableRow;horizontal=0;startSize=0;swimlaneHead=0;swimlaneBody=0;fillColor=none;collapsible=0;dropTarget=0;points=[[0,0.5],[1,0.5]];portConstraint=eastwest;top=0;left=0;right=0;bottom=0;" parent="BdoXRXtc4Kc0ySHsWEAi-3" vertex="1">
          <mxGeometry y="440" width="200" height="50" as="geometry" />
        </mxCell>
        <mxCell id="bnzuN9o2RiYUYbp6fuS0-1" value="varchar(500)" style="shape=partialRectangle;connectable=0;fillColor=none;top=0;left=0;bottom=0;right=0;editable=1;overflow=hidden;whiteSpace=wrap;html=1;" parent="bnzuN9o2RiYUYbp6fuS0-0" vertex="1">
          <mxGeometry width="89.99999999999977" height="50" as="geometry">
            <mxRectangle width="89.99999999999977" height="50" as="alternateBounds" />
          </mxGeometry>
        </mxCell>
        <mxCell id="bnzuN9o2RiYUYbp6fuS0-2" value="spending" style="shape=partialRectangle;connectable=0;fillColor=none;top=0;left=0;bottom=0;right=0;align=left;spacingLeft=6;overflow=hidden;whiteSpace=wrap;html=1;" parent="bnzuN9o2RiYUYbp6fuS0-0" vertex="1">
          <mxGeometry x="89.99999999999977" width="110.00000000000023" height="50" as="geometry">
            <mxRectangle width="110.00000000000023" height="50" as="alternateBounds" />
          </mxGeometry>
        </mxCell>
        <mxCell id="eji1tCNYbOfeHdif-Vnv-46" value="account" style="shape=table;startSize=30;container=1;collapsible=1;childLayout=tableLayout;fixedRows=1;rowLines=0;fontStyle=1;align=center;resizeLast=1;html=1;" parent="WIyWlLk6GJQsqaUBKTNV-1" vertex="1">
          <mxGeometry x="1044" y="-2010" width="260" height="150" as="geometry" />
        </mxCell>
        <mxCell id="eji1tCNYbOfeHdif-Vnv-47" value="" style="shape=tableRow;horizontal=0;startSize=0;swimlaneHead=0;swimlaneBody=0;fillColor=none;collapsible=0;dropTarget=0;points=[[0,0.5],[1,0.5]];portConstraint=eastwest;top=0;left=0;right=0;bottom=1;" parent="eji1tCNYbOfeHdif-Vnv-46" vertex="1">
          <mxGeometry y="30" width="260" height="30" as="geometry" />
        </mxCell>
        <mxCell id="eji1tCNYbOfeHdif-Vnv-48" value="varchar(11)" style="shape=partialRectangle;connectable=0;fillColor=none;top=0;left=0;bottom=0;right=0;fontStyle=1;overflow=hidden;whiteSpace=wrap;html=1;" parent="eji1tCNYbOfeHdif-Vnv-47" vertex="1">
          <mxGeometry width="80" height="30" as="geometry">
            <mxRectangle width="80" height="30" as="alternateBounds" />
          </mxGeometry>
        </mxCell>
        <mxCell id="eji1tCNYbOfeHdif-Vnv-49" value="phone number" style="shape=partialRectangle;connectable=0;fillColor=none;top=0;left=0;bottom=0;right=0;align=left;spacingLeft=6;fontStyle=5;overflow=hidden;whiteSpace=wrap;html=1;" parent="eji1tCNYbOfeHdif-Vnv-47" vertex="1">
          <mxGeometry x="80" width="180" height="30" as="geometry">
            <mxRectangle width="180" height="30" as="alternateBounds" />
          </mxGeometry>
        </mxCell>
        <mxCell id="eji1tCNYbOfeHdif-Vnv-50" value="" style="shape=tableRow;horizontal=0;startSize=0;swimlaneHead=0;swimlaneBody=0;fillColor=none;collapsible=0;dropTarget=0;points=[[0,0.5],[1,0.5]];portConstraint=eastwest;top=0;left=0;right=0;bottom=0;" parent="eji1tCNYbOfeHdif-Vnv-46" vertex="1">
          <mxGeometry y="60" width="260" height="30" as="geometry" />
        </mxCell>
        <mxCell id="eji1tCNYbOfeHdif-Vnv-51" value="varchar(500)" style="shape=partialRectangle;connectable=0;fillColor=none;top=0;left=0;bottom=0;right=0;editable=1;overflow=hidden;whiteSpace=wrap;html=1;" parent="eji1tCNYbOfeHdif-Vnv-50" vertex="1">
          <mxGeometry width="80" height="30" as="geometry">
            <mxRectangle width="80" height="30" as="alternateBounds" />
          </mxGeometry>
        </mxCell>
        <mxCell id="eji1tCNYbOfeHdif-Vnv-52" value="password" style="shape=partialRectangle;connectable=0;fillColor=none;top=0;left=0;bottom=0;right=0;align=left;spacingLeft=6;overflow=hidden;whiteSpace=wrap;html=1;" parent="eji1tCNYbOfeHdif-Vnv-50" vertex="1">
          <mxGeometry x="80" width="180" height="30" as="geometry">
            <mxRectangle width="180" height="30" as="alternateBounds" />
          </mxGeometry>
        </mxCell>
        <mxCell id="ZF2hxtfzH086-gN3r0IA-0" value="" style="shape=tableRow;horizontal=0;startSize=0;swimlaneHead=0;swimlaneBody=0;fillColor=none;collapsible=0;dropTarget=0;points=[[0,0.5],[1,0.5]];portConstraint=eastwest;top=0;left=0;right=0;bottom=0;" parent="eji1tCNYbOfeHdif-Vnv-46" vertex="1">
          <mxGeometry y="90" width="260" height="30" as="geometry" />
        </mxCell>
        <mxCell id="ZF2hxtfzH086-gN3r0IA-1" value="varchar(500)" style="shape=partialRectangle;connectable=0;fillColor=none;top=0;left=0;bottom=0;right=0;editable=1;overflow=hidden;whiteSpace=wrap;html=1;" parent="ZF2hxtfzH086-gN3r0IA-0" vertex="1">
          <mxGeometry width="80" height="30" as="geometry">
            <mxRectangle width="80" height="30" as="alternateBounds" />
          </mxGeometry>
        </mxCell>
        <mxCell id="ZF2hxtfzH086-gN3r0IA-2" value="permission" style="shape=partialRectangle;connectable=0;fillColor=none;top=0;left=0;bottom=0;right=0;align=left;spacingLeft=6;overflow=hidden;whiteSpace=wrap;html=1;" parent="ZF2hxtfzH086-gN3r0IA-0" vertex="1">
          <mxGeometry x="80" width="180" height="30" as="geometry">
            <mxRectangle width="180" height="30" as="alternateBounds" />
          </mxGeometry>
        </mxCell>
        <mxCell id="ZF2hxtfzH086-gN3r0IA-34" value="" style="shape=tableRow;horizontal=0;startSize=0;swimlaneHead=0;swimlaneBody=0;fillColor=none;collapsible=0;dropTarget=0;points=[[0,0.5],[1,0.5]];portConstraint=eastwest;top=0;left=0;right=0;bottom=0;" parent="eji1tCNYbOfeHdif-Vnv-46" vertex="1">
          <mxGeometry y="120" width="260" height="30" as="geometry" />
        </mxCell>
        <mxCell id="ZF2hxtfzH086-gN3r0IA-35" value="datetime" style="shape=partialRectangle;connectable=0;fillColor=none;top=0;left=0;bottom=0;right=0;editable=1;overflow=hidden;whiteSpace=wrap;html=1;" parent="ZF2hxtfzH086-gN3r0IA-34" vertex="1">
          <mxGeometry width="80" height="30" as="geometry">
            <mxRectangle width="80" height="30" as="alternateBounds" />
          </mxGeometry>
        </mxCell>
        <mxCell id="ZF2hxtfzH086-gN3r0IA-36" value="joining date" style="shape=partialRectangle;connectable=0;fillColor=none;top=0;left=0;bottom=0;right=0;align=left;spacingLeft=6;overflow=hidden;whiteSpace=wrap;html=1;" parent="ZF2hxtfzH086-gN3r0IA-34" vertex="1">
          <mxGeometry x="80" width="180" height="30" as="geometry">
            <mxRectangle width="180" height="30" as="alternateBounds" />
          </mxGeometry>
        </mxCell>
        <mxCell id="eji1tCNYbOfeHdif-Vnv-63" value="address" style="shape=table;startSize=30;container=1;collapsible=1;childLayout=tableLayout;fixedRows=1;rowLines=0;fontStyle=1;align=center;resizeLast=1;html=1;" parent="WIyWlLk6GJQsqaUBKTNV-1" vertex="1">
          <mxGeometry x="1444" y="-2440" width="210" height="120" as="geometry" />
        </mxCell>
        <mxCell id="eji1tCNYbOfeHdif-Vnv-64" value="" style="shape=tableRow;horizontal=0;startSize=0;swimlaneHead=0;swimlaneBody=0;fillColor=none;collapsible=0;dropTarget=0;points=[[0,0.5],[1,0.5]];portConstraint=eastwest;top=0;left=0;right=0;bottom=1;" parent="eji1tCNYbOfeHdif-Vnv-63" vertex="1">
          <mxGeometry y="30" width="210" height="30" as="geometry" />
        </mxCell>
        <mxCell id="eji1tCNYbOfeHdif-Vnv-65" value="PK" style="shape=partialRectangle;connectable=0;fillColor=none;top=0;left=0;bottom=0;right=0;fontStyle=1;overflow=hidden;whiteSpace=wrap;html=1;" parent="eji1tCNYbOfeHdif-Vnv-64" vertex="1">
          <mxGeometry width="90" height="30" as="geometry">
            <mxRectangle width="90" height="30" as="alternateBounds" />
          </mxGeometry>
        </mxCell>
        <mxCell id="eji1tCNYbOfeHdif-Vnv-66" value="id address" style="shape=partialRectangle;connectable=0;fillColor=none;top=0;left=0;bottom=0;right=0;align=left;spacingLeft=6;fontStyle=5;overflow=hidden;whiteSpace=wrap;html=1;" parent="eji1tCNYbOfeHdif-Vnv-64" vertex="1">
          <mxGeometry x="90" width="120" height="30" as="geometry">
            <mxRectangle width="120" height="30" as="alternateBounds" />
          </mxGeometry>
        </mxCell>
        <mxCell id="eji1tCNYbOfeHdif-Vnv-70" value="" style="shape=tableRow;horizontal=0;startSize=0;swimlaneHead=0;swimlaneBody=0;fillColor=none;collapsible=0;dropTarget=0;points=[[0,0.5],[1,0.5]];portConstraint=eastwest;top=0;left=0;right=0;bottom=0;" parent="eji1tCNYbOfeHdif-Vnv-63" vertex="1">
          <mxGeometry y="60" width="210" height="30" as="geometry" />
        </mxCell>
        <mxCell id="eji1tCNYbOfeHdif-Vnv-71" value="varchar(500)" style="shape=partialRectangle;connectable=0;fillColor=none;top=0;left=0;bottom=0;right=0;editable=1;overflow=hidden;whiteSpace=wrap;html=1;" parent="eji1tCNYbOfeHdif-Vnv-70" vertex="1">
          <mxGeometry width="90" height="30" as="geometry">
            <mxRectangle width="90" height="30" as="alternateBounds" />
          </mxGeometry>
        </mxCell>
        <mxCell id="eji1tCNYbOfeHdif-Vnv-72" value="name address" style="shape=partialRectangle;connectable=0;fillColor=none;top=0;left=0;bottom=0;right=0;align=left;spacingLeft=6;overflow=hidden;whiteSpace=wrap;html=1;" parent="eji1tCNYbOfeHdif-Vnv-70" vertex="1">
          <mxGeometry x="90" width="120" height="30" as="geometry">
            <mxRectangle width="120" height="30" as="alternateBounds" />
          </mxGeometry>
        </mxCell>
        <mxCell id="eji1tCNYbOfeHdif-Vnv-67" value="" style="shape=tableRow;horizontal=0;startSize=0;swimlaneHead=0;swimlaneBody=0;fillColor=none;collapsible=0;dropTarget=0;points=[[0,0.5],[1,0.5]];portConstraint=eastwest;top=0;left=0;right=0;bottom=0;" parent="eji1tCNYbOfeHdif-Vnv-63" vertex="1">
          <mxGeometry y="90" width="210" height="30" as="geometry" />
        </mxCell>
        <mxCell id="eji1tCNYbOfeHdif-Vnv-68" value="varchar(500)" style="shape=partialRectangle;connectable=0;fillColor=none;top=0;left=0;bottom=0;right=0;editable=1;overflow=hidden;whiteSpace=wrap;html=1;" parent="eji1tCNYbOfeHdif-Vnv-67" vertex="1">
          <mxGeometry width="90" height="30" as="geometry">
            <mxRectangle width="90" height="30" as="alternateBounds" />
          </mxGeometry>
        </mxCell>
        <mxCell id="eji1tCNYbOfeHdif-Vnv-69" value="address" style="shape=partialRectangle;connectable=0;fillColor=none;top=0;left=0;bottom=0;right=0;align=left;spacingLeft=6;overflow=hidden;whiteSpace=wrap;html=1;" parent="eji1tCNYbOfeHdif-Vnv-67" vertex="1">
          <mxGeometry x="90" width="120" height="30" as="geometry">
            <mxRectangle width="120" height="30" as="alternateBounds" />
          </mxGeometry>
        </mxCell>
        <mxCell id="eji1tCNYbOfeHdif-Vnv-76" value="" style="edgeStyle=entityRelationEdgeStyle;fontSize=12;html=1;endArrow=ERoneToMany;startArrow=ERmandOne;rounded=0;" parent="WIyWlLk6GJQsqaUBKTNV-1" source="BdoXRXtc4Kc0ySHsWEAi-3" target="eji1tCNYbOfeHdif-Vnv-63" edge="1">
          <mxGeometry width="100" height="100" relative="1" as="geometry">
            <mxPoint x="1204" y="-2250" as="sourcePoint" />
            <mxPoint x="1304" y="-2350" as="targetPoint" />
          </mxGeometry>
        </mxCell>
        <mxCell id="ZF2hxtfzH086-gN3r0IA-3" value="Shipper" style="shape=table;startSize=30;container=1;collapsible=1;childLayout=tableLayout;fixedRows=1;rowLines=0;fontStyle=1;align=center;resizeLast=1;html=1;" parent="WIyWlLk6GJQsqaUBKTNV-1" vertex="1">
          <mxGeometry x="1454" y="-1920" width="220" height="430" as="geometry" />
        </mxCell>
        <mxCell id="ZF2hxtfzH086-gN3r0IA-4" value="" style="shape=tableRow;horizontal=0;startSize=0;swimlaneHead=0;swimlaneBody=0;fillColor=none;collapsible=0;dropTarget=0;points=[[0,0.5],[1,0.5]];portConstraint=eastwest;top=0;left=0;right=0;bottom=1;" parent="ZF2hxtfzH086-gN3r0IA-3" vertex="1">
          <mxGeometry y="30" width="220" height="30" as="geometry" />
        </mxCell>
        <mxCell id="ZF2hxtfzH086-gN3r0IA-5" value="PK" style="shape=partialRectangle;connectable=0;fillColor=none;top=0;left=0;bottom=0;right=0;fontStyle=1;overflow=hidden;whiteSpace=wrap;html=1;" parent="ZF2hxtfzH086-gN3r0IA-4" vertex="1">
          <mxGeometry width="80" height="30" as="geometry">
            <mxRectangle width="80" height="30" as="alternateBounds" />
          </mxGeometry>
        </mxCell>
        <mxCell id="ZF2hxtfzH086-gN3r0IA-6" value="id shipper" style="shape=partialRectangle;connectable=0;fillColor=none;top=0;left=0;bottom=0;right=0;align=left;spacingLeft=6;fontStyle=5;overflow=hidden;whiteSpace=wrap;html=1;" parent="ZF2hxtfzH086-gN3r0IA-4" vertex="1">
          <mxGeometry x="80" width="140" height="30" as="geometry">
            <mxRectangle width="140" height="30" as="alternateBounds" />
          </mxGeometry>
        </mxCell>
        <mxCell id="ZF2hxtfzH086-gN3r0IA-7" value="" style="shape=tableRow;horizontal=0;startSize=0;swimlaneHead=0;swimlaneBody=0;fillColor=none;collapsible=0;dropTarget=0;points=[[0,0.5],[1,0.5]];portConstraint=eastwest;top=0;left=0;right=0;bottom=0;" parent="ZF2hxtfzH086-gN3r0IA-3" vertex="1">
          <mxGeometry y="60" width="220" height="30" as="geometry" />
        </mxCell>
        <mxCell id="ZF2hxtfzH086-gN3r0IA-8" value="varchar(11)" style="shape=partialRectangle;connectable=0;fillColor=none;top=0;left=0;bottom=0;right=0;editable=1;overflow=hidden;whiteSpace=wrap;html=1;" parent="ZF2hxtfzH086-gN3r0IA-7" vertex="1">
          <mxGeometry width="80" height="30" as="geometry">
            <mxRectangle width="80" height="30" as="alternateBounds" />
          </mxGeometry>
        </mxCell>
        <mxCell id="ZF2hxtfzH086-gN3r0IA-9" value="license plates" style="shape=partialRectangle;connectable=0;fillColor=none;top=0;left=0;bottom=0;right=0;align=left;spacingLeft=6;overflow=hidden;whiteSpace=wrap;html=1;" parent="ZF2hxtfzH086-gN3r0IA-7" vertex="1">
          <mxGeometry x="80" width="140" height="30" as="geometry">
            <mxRectangle width="140" height="30" as="alternateBounds" />
          </mxGeometry>
        </mxCell>
        <mxCell id="ZF2hxtfzH086-gN3r0IA-66" value="" style="shape=tableRow;horizontal=0;startSize=0;swimlaneHead=0;swimlaneBody=0;fillColor=none;collapsible=0;dropTarget=0;points=[[0,0.5],[1,0.5]];portConstraint=eastwest;top=0;left=0;right=0;bottom=0;" parent="ZF2hxtfzH086-gN3r0IA-3" vertex="1">
          <mxGeometry y="90" width="220" height="30" as="geometry" />
        </mxCell>
        <mxCell id="ZF2hxtfzH086-gN3r0IA-67" value="varchar(500)" style="shape=partialRectangle;connectable=0;fillColor=none;top=0;left=0;bottom=0;right=0;editable=1;overflow=hidden;whiteSpace=wrap;html=1;" parent="ZF2hxtfzH086-gN3r0IA-66" vertex="1">
          <mxGeometry width="80" height="30" as="geometry">
            <mxRectangle width="80" height="30" as="alternateBounds" />
          </mxGeometry>
        </mxCell>
        <mxCell id="ZF2hxtfzH086-gN3r0IA-68" value="image driver license" style="shape=partialRectangle;connectable=0;fillColor=none;top=0;left=0;bottom=0;right=0;align=left;spacingLeft=6;overflow=hidden;whiteSpace=wrap;html=1;" parent="ZF2hxtfzH086-gN3r0IA-66" vertex="1">
          <mxGeometry x="80" width="140" height="30" as="geometry">
            <mxRectangle width="140" height="30" as="alternateBounds" />
          </mxGeometry>
        </mxCell>
        <mxCell id="ZF2hxtfzH086-gN3r0IA-102" value="" style="shape=tableRow;horizontal=0;startSize=0;swimlaneHead=0;swimlaneBody=0;fillColor=none;collapsible=0;dropTarget=0;points=[[0,0.5],[1,0.5]];portConstraint=eastwest;top=0;left=0;right=0;bottom=0;" parent="ZF2hxtfzH086-gN3r0IA-3" vertex="1">
          <mxGeometry y="120" width="220" height="30" as="geometry" />
        </mxCell>
        <mxCell id="ZF2hxtfzH086-gN3r0IA-103" value="varchar(500)" style="shape=partialRectangle;connectable=0;fillColor=none;top=0;left=0;bottom=0;right=0;editable=1;overflow=hidden;whiteSpace=wrap;html=1;" parent="ZF2hxtfzH086-gN3r0IA-102" vertex="1">
          <mxGeometry width="80" height="30" as="geometry">
            <mxRectangle width="80" height="30" as="alternateBounds" />
          </mxGeometry>
        </mxCell>
        <mxCell id="ZF2hxtfzH086-gN3r0IA-104" value="image vehicle registration" style="shape=partialRectangle;connectable=0;fillColor=none;top=0;left=0;bottom=0;right=0;align=left;spacingLeft=6;overflow=hidden;whiteSpace=wrap;html=1;" parent="ZF2hxtfzH086-gN3r0IA-102" vertex="1">
          <mxGeometry x="80" width="140" height="30" as="geometry">
            <mxRectangle width="140" height="30" as="alternateBounds" />
          </mxGeometry>
        </mxCell>
        <mxCell id="ZF2hxtfzH086-gN3r0IA-10" value="" style="shape=tableRow;horizontal=0;startSize=0;swimlaneHead=0;swimlaneBody=0;fillColor=none;collapsible=0;dropTarget=0;points=[[0,0.5],[1,0.5]];portConstraint=eastwest;top=0;left=0;right=0;bottom=0;" parent="ZF2hxtfzH086-gN3r0IA-3" vertex="1">
          <mxGeometry y="150" width="220" height="30" as="geometry" />
        </mxCell>
        <mxCell id="ZF2hxtfzH086-gN3r0IA-11" value="varchar(500)" style="shape=partialRectangle;connectable=0;fillColor=none;top=0;left=0;bottom=0;right=0;editable=1;overflow=hidden;whiteSpace=wrap;html=1;" parent="ZF2hxtfzH086-gN3r0IA-10" vertex="1">
          <mxGeometry width="80" height="30" as="geometry">
            <mxRectangle width="80" height="30" as="alternateBounds" />
          </mxGeometry>
        </mxCell>
        <mxCell id="ZF2hxtfzH086-gN3r0IA-12" value="image Curriculum Vitae&amp;nbsp;" style="shape=partialRectangle;connectable=0;fillColor=none;top=0;left=0;bottom=0;right=0;align=left;spacingLeft=6;overflow=hidden;whiteSpace=wrap;html=1;" parent="ZF2hxtfzH086-gN3r0IA-10" vertex="1">
          <mxGeometry x="80" width="140" height="30" as="geometry">
            <mxRectangle width="140" height="30" as="alternateBounds" />
          </mxGeometry>
        </mxCell>
        <mxCell id="ZF2hxtfzH086-gN3r0IA-13" value="" style="shape=tableRow;horizontal=0;startSize=0;swimlaneHead=0;swimlaneBody=0;fillColor=none;collapsible=0;dropTarget=0;points=[[0,0.5],[1,0.5]];portConstraint=eastwest;top=0;left=0;right=0;bottom=0;" parent="ZF2hxtfzH086-gN3r0IA-3" vertex="1">
          <mxGeometry y="180" width="220" height="40" as="geometry" />
        </mxCell>
        <mxCell id="ZF2hxtfzH086-gN3r0IA-14" value="varchar(500)" style="shape=partialRectangle;connectable=0;fillColor=none;top=0;left=0;bottom=0;right=0;editable=1;overflow=hidden;whiteSpace=wrap;html=1;" parent="ZF2hxtfzH086-gN3r0IA-13" vertex="1">
          <mxGeometry width="80" height="40" as="geometry">
            <mxRectangle width="80" height="40" as="alternateBounds" />
          </mxGeometry>
        </mxCell>
        <mxCell id="ZF2hxtfzH086-gN3r0IA-15" value="image Civil Guarantee Letter" style="shape=partialRectangle;connectable=0;fillColor=none;top=0;left=0;bottom=0;right=0;align=left;spacingLeft=6;overflow=hidden;whiteSpace=wrap;html=1;" parent="ZF2hxtfzH086-gN3r0IA-13" vertex="1">
          <mxGeometry x="80" width="140" height="40" as="geometry">
            <mxRectangle width="140" height="40" as="alternateBounds" />
          </mxGeometry>
        </mxCell>
        <mxCell id="ZF2hxtfzH086-gN3r0IA-16" value="" style="shape=tableRow;horizontal=0;startSize=0;swimlaneHead=0;swimlaneBody=0;fillColor=none;collapsible=0;dropTarget=0;points=[[0,0.5],[1,0.5]];portConstraint=eastwest;top=0;left=0;right=0;bottom=0;" parent="ZF2hxtfzH086-gN3r0IA-3" vertex="1">
          <mxGeometry y="220" width="220" height="40" as="geometry" />
        </mxCell>
        <mxCell id="ZF2hxtfzH086-gN3r0IA-17" value="varchar(500)" style="shape=partialRectangle;connectable=0;fillColor=none;top=0;left=0;bottom=0;right=0;editable=1;overflow=hidden;whiteSpace=wrap;html=1;" parent="ZF2hxtfzH086-gN3r0IA-16" vertex="1">
          <mxGeometry width="80" height="40" as="geometry">
            <mxRectangle width="80" height="40" as="alternateBounds" />
          </mxGeometry>
        </mxCell>
        <mxCell id="ZF2hxtfzH086-gN3r0IA-18" value="image Certificate of No Criminal Record" style="shape=partialRectangle;connectable=0;fillColor=none;top=0;left=0;bottom=0;right=0;align=left;spacingLeft=6;overflow=hidden;whiteSpace=wrap;html=1;" parent="ZF2hxtfzH086-gN3r0IA-16" vertex="1">
          <mxGeometry x="80" width="140" height="40" as="geometry">
            <mxRectangle width="140" height="40" as="alternateBounds" />
          </mxGeometry>
        </mxCell>
        <mxCell id="ZF2hxtfzH086-gN3r0IA-19" value="" style="shape=tableRow;horizontal=0;startSize=0;swimlaneHead=0;swimlaneBody=0;fillColor=none;collapsible=0;dropTarget=0;points=[[0,0.5],[1,0.5]];portConstraint=eastwest;top=0;left=0;right=0;bottom=0;" parent="ZF2hxtfzH086-gN3r0IA-3" vertex="1">
          <mxGeometry y="260" width="220" height="30" as="geometry" />
        </mxCell>
        <mxCell id="ZF2hxtfzH086-gN3r0IA-20" value="varchar(500)" style="shape=partialRectangle;connectable=0;fillColor=none;top=0;left=0;bottom=0;right=0;editable=1;overflow=hidden;whiteSpace=wrap;html=1;" parent="ZF2hxtfzH086-gN3r0IA-19" vertex="1">
          <mxGeometry width="80" height="30" as="geometry">
            <mxRectangle width="80" height="30" as="alternateBounds" />
          </mxGeometry>
        </mxCell>
        <mxCell id="ZF2hxtfzH086-gN3r0IA-21" value="image&amp;nbsp;Birth Certificate" style="shape=partialRectangle;connectable=0;fillColor=none;top=0;left=0;bottom=0;right=0;align=left;spacingLeft=6;overflow=hidden;whiteSpace=wrap;html=1;" parent="ZF2hxtfzH086-gN3r0IA-19" vertex="1">
          <mxGeometry x="80" width="140" height="30" as="geometry">
            <mxRectangle width="140" height="30" as="alternateBounds" />
          </mxGeometry>
        </mxCell>
        <mxCell id="ZF2hxtfzH086-gN3r0IA-22" value="" style="shape=tableRow;horizontal=0;startSize=0;swimlaneHead=0;swimlaneBody=0;fillColor=none;collapsible=0;dropTarget=0;points=[[0,0.5],[1,0.5]];portConstraint=eastwest;top=0;left=0;right=0;bottom=0;" parent="ZF2hxtfzH086-gN3r0IA-3" vertex="1">
          <mxGeometry y="290" width="220" height="40" as="geometry" />
        </mxCell>
        <mxCell id="ZF2hxtfzH086-gN3r0IA-23" value="varchar(500)" style="shape=partialRectangle;connectable=0;fillColor=none;top=0;left=0;bottom=0;right=0;editable=1;overflow=hidden;whiteSpace=wrap;html=1;" parent="ZF2hxtfzH086-gN3r0IA-22" vertex="1">
          <mxGeometry width="80" height="40" as="geometry">
            <mxRectangle width="80" height="40" as="alternateBounds" />
          </mxGeometry>
        </mxCell>
        <mxCell id="ZF2hxtfzH086-gN3r0IA-24" value="image&amp;nbsp;Household Registration" style="shape=partialRectangle;connectable=0;fillColor=none;top=0;left=0;bottom=0;right=0;align=left;spacingLeft=6;overflow=hidden;whiteSpace=wrap;html=1;" parent="ZF2hxtfzH086-gN3r0IA-22" vertex="1">
          <mxGeometry x="80" width="140" height="40" as="geometry">
            <mxRectangle width="140" height="40" as="alternateBounds" />
          </mxGeometry>
        </mxCell>
        <mxCell id="ZF2hxtfzH086-gN3r0IA-25" value="" style="shape=tableRow;horizontal=0;startSize=0;swimlaneHead=0;swimlaneBody=0;fillColor=none;collapsible=0;dropTarget=0;points=[[0,0.5],[1,0.5]];portConstraint=eastwest;top=0;left=0;right=0;bottom=0;" parent="ZF2hxtfzH086-gN3r0IA-3" vertex="1">
          <mxGeometry y="330" width="220" height="40" as="geometry" />
        </mxCell>
        <mxCell id="ZF2hxtfzH086-gN3r0IA-26" value="varchar(500)" style="shape=partialRectangle;connectable=0;fillColor=none;top=0;left=0;bottom=0;right=0;editable=1;overflow=hidden;whiteSpace=wrap;html=1;" parent="ZF2hxtfzH086-gN3r0IA-25" vertex="1">
          <mxGeometry width="80" height="40" as="geometry">
            <mxRectangle width="80" height="40" as="alternateBounds" />
          </mxGeometry>
        </mxCell>
        <mxCell id="ZF2hxtfzH086-gN3r0IA-27" value="image&amp;nbsp;Health Examination Certificate" style="shape=partialRectangle;connectable=0;fillColor=none;top=0;left=0;bottom=0;right=0;align=left;spacingLeft=6;overflow=hidden;whiteSpace=wrap;html=1;" parent="ZF2hxtfzH086-gN3r0IA-25" vertex="1">
          <mxGeometry x="80" width="140" height="40" as="geometry">
            <mxRectangle width="140" height="40" as="alternateBounds" />
          </mxGeometry>
        </mxCell>
        <mxCell id="ZF2hxtfzH086-gN3r0IA-28" value="" style="shape=tableRow;horizontal=0;startSize=0;swimlaneHead=0;swimlaneBody=0;fillColor=none;collapsible=0;dropTarget=0;points=[[0,0.5],[1,0.5]];portConstraint=eastwest;top=0;left=0;right=0;bottom=0;" parent="ZF2hxtfzH086-gN3r0IA-3" vertex="1">
          <mxGeometry y="370" width="220" height="30" as="geometry" />
        </mxCell>
        <mxCell id="ZF2hxtfzH086-gN3r0IA-29" value="varchar(500)" style="shape=partialRectangle;connectable=0;fillColor=none;top=0;left=0;bottom=0;right=0;editable=1;overflow=hidden;whiteSpace=wrap;html=1;" parent="ZF2hxtfzH086-gN3r0IA-28" vertex="1">
          <mxGeometry width="80" height="30" as="geometry">
            <mxRectangle width="80" height="30" as="alternateBounds" />
          </mxGeometry>
        </mxCell>
        <mxCell id="ZF2hxtfzH086-gN3r0IA-30" value="image&amp;nbsp;Health Examination Certificate" style="shape=partialRectangle;connectable=0;fillColor=none;top=0;left=0;bottom=0;right=0;align=left;spacingLeft=6;overflow=hidden;whiteSpace=wrap;html=1;" parent="ZF2hxtfzH086-gN3r0IA-28" vertex="1">
          <mxGeometry x="80" width="140" height="30" as="geometry">
            <mxRectangle width="140" height="30" as="alternateBounds" />
          </mxGeometry>
        </mxCell>
        <mxCell id="rW63hfcLeEp5ZlImFfPp-0" value="" style="shape=tableRow;horizontal=0;startSize=0;swimlaneHead=0;swimlaneBody=0;fillColor=none;collapsible=0;dropTarget=0;points=[[0,0.5],[1,0.5]];portConstraint=eastwest;top=0;left=0;right=0;bottom=0;" vertex="1" parent="ZF2hxtfzH086-gN3r0IA-3">
          <mxGeometry y="400" width="220" height="30" as="geometry" />
        </mxCell>
        <mxCell id="rW63hfcLeEp5ZlImFfPp-1" value="boolean" style="shape=partialRectangle;connectable=0;fillColor=none;top=0;left=0;bottom=0;right=0;editable=1;overflow=hidden;whiteSpace=wrap;html=1;" vertex="1" parent="rW63hfcLeEp5ZlImFfPp-0">
          <mxGeometry width="80" height="30" as="geometry">
            <mxRectangle width="80" height="30" as="alternateBounds" />
          </mxGeometry>
        </mxCell>
        <mxCell id="rW63hfcLeEp5ZlImFfPp-2" value="status" style="shape=partialRectangle;connectable=0;fillColor=none;top=0;left=0;bottom=0;right=0;align=left;spacingLeft=6;overflow=hidden;whiteSpace=wrap;html=1;" vertex="1" parent="rW63hfcLeEp5ZlImFfPp-0">
          <mxGeometry x="80" width="140" height="30" as="geometry">
            <mxRectangle width="140" height="30" as="alternateBounds" />
          </mxGeometry>
        </mxCell>
        <mxCell id="ZF2hxtfzH086-gN3r0IA-37" value="" style="fontSize=12;html=1;endArrow=ERoneToMany;startArrow=ERmandOne;rounded=0;elbow=vertical;exitX=0.544;exitY=1.033;exitDx=0;exitDy=0;exitPerimeter=0;edgeStyle=orthogonalEdgeStyle;entryX=0;entryY=0.5;entryDx=0;entryDy=0;" parent="WIyWlLk6GJQsqaUBKTNV-1" source="ZF2hxtfzH086-gN3r0IA-109" target="ZF2hxtfzH086-gN3r0IA-122" edge="1">
          <mxGeometry width="100" height="100" relative="1" as="geometry">
            <mxPoint x="1964" y="-1590" as="sourcePoint" />
            <mxPoint x="2224" y="-1550" as="targetPoint" />
          </mxGeometry>
        </mxCell>
        <mxCell id="ZF2hxtfzH086-gN3r0IA-38" value="manager" style="shape=table;startSize=30;container=1;collapsible=1;childLayout=tableLayout;fixedRows=1;rowLines=0;fontStyle=1;align=center;resizeLast=1;html=1;" parent="WIyWlLk6GJQsqaUBKTNV-1" vertex="1">
          <mxGeometry x="2104" y="-1910" width="220" height="280" as="geometry" />
        </mxCell>
        <mxCell id="ZF2hxtfzH086-gN3r0IA-39" value="" style="shape=tableRow;horizontal=0;startSize=0;swimlaneHead=0;swimlaneBody=0;fillColor=none;collapsible=0;dropTarget=0;points=[[0,0.5],[1,0.5]];portConstraint=eastwest;top=0;left=0;right=0;bottom=1;" parent="ZF2hxtfzH086-gN3r0IA-38" vertex="1">
          <mxGeometry y="30" width="220" height="30" as="geometry" />
        </mxCell>
        <mxCell id="ZF2hxtfzH086-gN3r0IA-40" value="PK" style="shape=partialRectangle;connectable=0;fillColor=none;top=0;left=0;bottom=0;right=0;fontStyle=1;overflow=hidden;whiteSpace=wrap;html=1;" parent="ZF2hxtfzH086-gN3r0IA-39" vertex="1">
          <mxGeometry width="80" height="30" as="geometry">
            <mxRectangle width="80" height="30" as="alternateBounds" />
          </mxGeometry>
        </mxCell>
        <mxCell id="ZF2hxtfzH086-gN3r0IA-41" value="id&amp;nbsp;manager" style="shape=partialRectangle;connectable=0;fillColor=none;top=0;left=0;bottom=0;right=0;align=left;spacingLeft=6;fontStyle=5;overflow=hidden;whiteSpace=wrap;html=1;" parent="ZF2hxtfzH086-gN3r0IA-39" vertex="1">
          <mxGeometry x="80" width="140" height="30" as="geometry">
            <mxRectangle width="140" height="30" as="alternateBounds" />
          </mxGeometry>
        </mxCell>
        <mxCell id="ZF2hxtfzH086-gN3r0IA-45" value="" style="shape=tableRow;horizontal=0;startSize=0;swimlaneHead=0;swimlaneBody=0;fillColor=none;collapsible=0;dropTarget=0;points=[[0,0.5],[1,0.5]];portConstraint=eastwest;top=0;left=0;right=0;bottom=0;" parent="ZF2hxtfzH086-gN3r0IA-38" vertex="1">
          <mxGeometry y="60" width="220" height="30" as="geometry" />
        </mxCell>
        <mxCell id="ZF2hxtfzH086-gN3r0IA-46" value="varchar(500)" style="shape=partialRectangle;connectable=0;fillColor=none;top=0;left=0;bottom=0;right=0;editable=1;overflow=hidden;whiteSpace=wrap;html=1;" parent="ZF2hxtfzH086-gN3r0IA-45" vertex="1">
          <mxGeometry width="80" height="30" as="geometry">
            <mxRectangle width="80" height="30" as="alternateBounds" />
          </mxGeometry>
        </mxCell>
        <mxCell id="ZF2hxtfzH086-gN3r0IA-47" value="image Curriculum Vitae&amp;nbsp;" style="shape=partialRectangle;connectable=0;fillColor=none;top=0;left=0;bottom=0;right=0;align=left;spacingLeft=6;overflow=hidden;whiteSpace=wrap;html=1;" parent="ZF2hxtfzH086-gN3r0IA-45" vertex="1">
          <mxGeometry x="80" width="140" height="30" as="geometry">
            <mxRectangle width="140" height="30" as="alternateBounds" />
          </mxGeometry>
        </mxCell>
        <mxCell id="ZF2hxtfzH086-gN3r0IA-48" value="" style="shape=tableRow;horizontal=0;startSize=0;swimlaneHead=0;swimlaneBody=0;fillColor=none;collapsible=0;dropTarget=0;points=[[0,0.5],[1,0.5]];portConstraint=eastwest;top=0;left=0;right=0;bottom=0;" parent="ZF2hxtfzH086-gN3r0IA-38" vertex="1">
          <mxGeometry y="90" width="220" height="30" as="geometry" />
        </mxCell>
        <mxCell id="ZF2hxtfzH086-gN3r0IA-49" value="varchar(500)" style="shape=partialRectangle;connectable=0;fillColor=none;top=0;left=0;bottom=0;right=0;editable=1;overflow=hidden;whiteSpace=wrap;html=1;" parent="ZF2hxtfzH086-gN3r0IA-48" vertex="1">
          <mxGeometry width="80" height="30" as="geometry">
            <mxRectangle width="80" height="30" as="alternateBounds" />
          </mxGeometry>
        </mxCell>
        <mxCell id="ZF2hxtfzH086-gN3r0IA-50" value="image Civil Guarantee Letter" style="shape=partialRectangle;connectable=0;fillColor=none;top=0;left=0;bottom=0;right=0;align=left;spacingLeft=6;overflow=hidden;whiteSpace=wrap;html=1;" parent="ZF2hxtfzH086-gN3r0IA-48" vertex="1">
          <mxGeometry x="80" width="140" height="30" as="geometry">
            <mxRectangle width="140" height="30" as="alternateBounds" />
          </mxGeometry>
        </mxCell>
        <mxCell id="ZF2hxtfzH086-gN3r0IA-51" value="" style="shape=tableRow;horizontal=0;startSize=0;swimlaneHead=0;swimlaneBody=0;fillColor=none;collapsible=0;dropTarget=0;points=[[0,0.5],[1,0.5]];portConstraint=eastwest;top=0;left=0;right=0;bottom=0;" parent="ZF2hxtfzH086-gN3r0IA-38" vertex="1">
          <mxGeometry y="120" width="220" height="30" as="geometry" />
        </mxCell>
        <mxCell id="ZF2hxtfzH086-gN3r0IA-52" value="varchar(500)" style="shape=partialRectangle;connectable=0;fillColor=none;top=0;left=0;bottom=0;right=0;editable=1;overflow=hidden;whiteSpace=wrap;html=1;" parent="ZF2hxtfzH086-gN3r0IA-51" vertex="1">
          <mxGeometry width="80" height="30" as="geometry">
            <mxRectangle width="80" height="30" as="alternateBounds" />
          </mxGeometry>
        </mxCell>
        <mxCell id="ZF2hxtfzH086-gN3r0IA-53" value="image Certificate of No Criminal Record" style="shape=partialRectangle;connectable=0;fillColor=none;top=0;left=0;bottom=0;right=0;align=left;spacingLeft=6;overflow=hidden;whiteSpace=wrap;html=1;" parent="ZF2hxtfzH086-gN3r0IA-51" vertex="1">
          <mxGeometry x="80" width="140" height="30" as="geometry">
            <mxRectangle width="140" height="30" as="alternateBounds" />
          </mxGeometry>
        </mxCell>
        <mxCell id="ZF2hxtfzH086-gN3r0IA-54" value="" style="shape=tableRow;horizontal=0;startSize=0;swimlaneHead=0;swimlaneBody=0;fillColor=none;collapsible=0;dropTarget=0;points=[[0,0.5],[1,0.5]];portConstraint=eastwest;top=0;left=0;right=0;bottom=0;" parent="ZF2hxtfzH086-gN3r0IA-38" vertex="1">
          <mxGeometry y="150" width="220" height="30" as="geometry" />
        </mxCell>
        <mxCell id="ZF2hxtfzH086-gN3r0IA-55" value="varchar(500)" style="shape=partialRectangle;connectable=0;fillColor=none;top=0;left=0;bottom=0;right=0;editable=1;overflow=hidden;whiteSpace=wrap;html=1;" parent="ZF2hxtfzH086-gN3r0IA-54" vertex="1">
          <mxGeometry width="80" height="30" as="geometry">
            <mxRectangle width="80" height="30" as="alternateBounds" />
          </mxGeometry>
        </mxCell>
        <mxCell id="ZF2hxtfzH086-gN3r0IA-56" value="image&amp;nbsp;Birth Certificate" style="shape=partialRectangle;connectable=0;fillColor=none;top=0;left=0;bottom=0;right=0;align=left;spacingLeft=6;overflow=hidden;whiteSpace=wrap;html=1;" parent="ZF2hxtfzH086-gN3r0IA-54" vertex="1">
          <mxGeometry x="80" width="140" height="30" as="geometry">
            <mxRectangle width="140" height="30" as="alternateBounds" />
          </mxGeometry>
        </mxCell>
        <mxCell id="ZF2hxtfzH086-gN3r0IA-57" value="" style="shape=tableRow;horizontal=0;startSize=0;swimlaneHead=0;swimlaneBody=0;fillColor=none;collapsible=0;dropTarget=0;points=[[0,0.5],[1,0.5]];portConstraint=eastwest;top=0;left=0;right=0;bottom=0;" parent="ZF2hxtfzH086-gN3r0IA-38" vertex="1">
          <mxGeometry y="180" width="220" height="30" as="geometry" />
        </mxCell>
        <mxCell id="ZF2hxtfzH086-gN3r0IA-58" value="varchar(500)" style="shape=partialRectangle;connectable=0;fillColor=none;top=0;left=0;bottom=0;right=0;editable=1;overflow=hidden;whiteSpace=wrap;html=1;" parent="ZF2hxtfzH086-gN3r0IA-57" vertex="1">
          <mxGeometry width="80" height="30" as="geometry">
            <mxRectangle width="80" height="30" as="alternateBounds" />
          </mxGeometry>
        </mxCell>
        <mxCell id="ZF2hxtfzH086-gN3r0IA-59" value="image&amp;nbsp;Household Registration" style="shape=partialRectangle;connectable=0;fillColor=none;top=0;left=0;bottom=0;right=0;align=left;spacingLeft=6;overflow=hidden;whiteSpace=wrap;html=1;" parent="ZF2hxtfzH086-gN3r0IA-57" vertex="1">
          <mxGeometry x="80" width="140" height="30" as="geometry">
            <mxRectangle width="140" height="30" as="alternateBounds" />
          </mxGeometry>
        </mxCell>
        <mxCell id="ZF2hxtfzH086-gN3r0IA-60" value="" style="shape=tableRow;horizontal=0;startSize=0;swimlaneHead=0;swimlaneBody=0;fillColor=none;collapsible=0;dropTarget=0;points=[[0,0.5],[1,0.5]];portConstraint=eastwest;top=0;left=0;right=0;bottom=0;" parent="ZF2hxtfzH086-gN3r0IA-38" vertex="1">
          <mxGeometry y="210" width="220" height="30" as="geometry" />
        </mxCell>
        <mxCell id="ZF2hxtfzH086-gN3r0IA-61" value="varchar(500)" style="shape=partialRectangle;connectable=0;fillColor=none;top=0;left=0;bottom=0;right=0;editable=1;overflow=hidden;whiteSpace=wrap;html=1;" parent="ZF2hxtfzH086-gN3r0IA-60" vertex="1">
          <mxGeometry width="80" height="30" as="geometry">
            <mxRectangle width="80" height="30" as="alternateBounds" />
          </mxGeometry>
        </mxCell>
        <mxCell id="ZF2hxtfzH086-gN3r0IA-62" value="image&amp;nbsp;Health Examination Certificate" style="shape=partialRectangle;connectable=0;fillColor=none;top=0;left=0;bottom=0;right=0;align=left;spacingLeft=6;overflow=hidden;whiteSpace=wrap;html=1;" parent="ZF2hxtfzH086-gN3r0IA-60" vertex="1">
          <mxGeometry x="80" width="140" height="30" as="geometry">
            <mxRectangle width="140" height="30" as="alternateBounds" />
          </mxGeometry>
        </mxCell>
        <mxCell id="ZF2hxtfzH086-gN3r0IA-63" value="" style="shape=tableRow;horizontal=0;startSize=0;swimlaneHead=0;swimlaneBody=0;fillColor=none;collapsible=0;dropTarget=0;points=[[0,0.5],[1,0.5]];portConstraint=eastwest;top=0;left=0;right=0;bottom=0;" parent="ZF2hxtfzH086-gN3r0IA-38" vertex="1">
          <mxGeometry y="240" width="220" height="40" as="geometry" />
        </mxCell>
        <mxCell id="ZF2hxtfzH086-gN3r0IA-64" value="varchar(500)" style="shape=partialRectangle;connectable=0;fillColor=none;top=0;left=0;bottom=0;right=0;editable=1;overflow=hidden;whiteSpace=wrap;html=1;" parent="ZF2hxtfzH086-gN3r0IA-63" vertex="1">
          <mxGeometry width="80" height="40" as="geometry">
            <mxRectangle width="80" height="40" as="alternateBounds" />
          </mxGeometry>
        </mxCell>
        <mxCell id="ZF2hxtfzH086-gN3r0IA-65" value="image&amp;nbsp;Health Examination Certificate" style="shape=partialRectangle;connectable=0;fillColor=none;top=0;left=0;bottom=0;right=0;align=left;spacingLeft=6;overflow=hidden;whiteSpace=wrap;html=1;" parent="ZF2hxtfzH086-gN3r0IA-63" vertex="1">
          <mxGeometry x="80" width="140" height="40" as="geometry">
            <mxRectangle width="140" height="40" as="alternateBounds" />
          </mxGeometry>
        </mxCell>
        <mxCell id="ZF2hxtfzH086-gN3r0IA-105" value="Post Office" style="shape=table;startSize=30;container=1;collapsible=1;childLayout=tableLayout;fixedRows=1;rowLines=0;fontStyle=1;align=center;resizeLast=1;html=1;" parent="WIyWlLk6GJQsqaUBKTNV-1" vertex="1">
          <mxGeometry x="1804" y="-1660" width="180" height="90" as="geometry" />
        </mxCell>
        <mxCell id="ZF2hxtfzH086-gN3r0IA-106" value="" style="shape=tableRow;horizontal=0;startSize=0;swimlaneHead=0;swimlaneBody=0;fillColor=none;collapsible=0;dropTarget=0;points=[[0,0.5],[1,0.5]];portConstraint=eastwest;top=0;left=0;right=0;bottom=1;" parent="ZF2hxtfzH086-gN3r0IA-105" vertex="1">
          <mxGeometry y="30" width="180" height="30" as="geometry" />
        </mxCell>
        <mxCell id="ZF2hxtfzH086-gN3r0IA-107" value="PK" style="shape=partialRectangle;connectable=0;fillColor=none;top=0;left=0;bottom=0;right=0;fontStyle=1;overflow=hidden;whiteSpace=wrap;html=1;" parent="ZF2hxtfzH086-gN3r0IA-106" vertex="1">
          <mxGeometry width="80" height="30" as="geometry">
            <mxRectangle width="80" height="30" as="alternateBounds" />
          </mxGeometry>
        </mxCell>
        <mxCell id="ZF2hxtfzH086-gN3r0IA-108" value="id post office" style="shape=partialRectangle;connectable=0;fillColor=none;top=0;left=0;bottom=0;right=0;align=left;spacingLeft=6;fontStyle=5;overflow=hidden;whiteSpace=wrap;html=1;" parent="ZF2hxtfzH086-gN3r0IA-106" vertex="1">
          <mxGeometry x="80" width="100" height="30" as="geometry">
            <mxRectangle width="100" height="30" as="alternateBounds" />
          </mxGeometry>
        </mxCell>
        <mxCell id="ZF2hxtfzH086-gN3r0IA-109" value="" style="shape=tableRow;horizontal=0;startSize=0;swimlaneHead=0;swimlaneBody=0;fillColor=none;collapsible=0;dropTarget=0;points=[[0,0.5],[1,0.5]];portConstraint=eastwest;top=0;left=0;right=0;bottom=0;" parent="ZF2hxtfzH086-gN3r0IA-105" vertex="1">
          <mxGeometry y="60" width="180" height="30" as="geometry" />
        </mxCell>
        <mxCell id="ZF2hxtfzH086-gN3r0IA-110" value="varchar(500)" style="shape=partialRectangle;connectable=0;fillColor=none;top=0;left=0;bottom=0;right=0;editable=1;overflow=hidden;whiteSpace=wrap;html=1;" parent="ZF2hxtfzH086-gN3r0IA-109" vertex="1">
          <mxGeometry width="80" height="30" as="geometry">
            <mxRectangle width="80" height="30" as="alternateBounds" />
          </mxGeometry>
        </mxCell>
        <mxCell id="ZF2hxtfzH086-gN3r0IA-111" value="location" style="shape=partialRectangle;connectable=0;fillColor=none;top=0;left=0;bottom=0;right=0;align=left;spacingLeft=6;overflow=hidden;whiteSpace=wrap;html=1;" parent="ZF2hxtfzH086-gN3r0IA-109" vertex="1">
          <mxGeometry x="80" width="100" height="30" as="geometry">
            <mxRectangle width="100" height="30" as="alternateBounds" />
          </mxGeometry>
        </mxCell>
        <mxCell id="ZF2hxtfzH086-gN3r0IA-118" value="transit vehicle" style="shape=table;startSize=30;container=1;collapsible=1;childLayout=tableLayout;fixedRows=1;rowLines=0;fontStyle=1;align=center;resizeLast=1;html=1;" parent="WIyWlLk6GJQsqaUBKTNV-1" vertex="1">
          <mxGeometry x="2684" y="-1530" width="239.99999999999955" height="210" as="geometry" />
        </mxCell>
        <mxCell id="ZF2hxtfzH086-gN3r0IA-119" value="" style="shape=tableRow;horizontal=0;startSize=0;swimlaneHead=0;swimlaneBody=0;fillColor=none;collapsible=0;dropTarget=0;points=[[0,0.5],[1,0.5]];portConstraint=eastwest;top=0;left=0;right=0;bottom=1;" parent="ZF2hxtfzH086-gN3r0IA-118" vertex="1">
          <mxGeometry y="30" width="239.99999999999955" height="30" as="geometry" />
        </mxCell>
        <mxCell id="ZF2hxtfzH086-gN3r0IA-120" value="PK" style="shape=partialRectangle;connectable=0;fillColor=none;top=0;left=0;bottom=0;right=0;fontStyle=1;overflow=hidden;whiteSpace=wrap;html=1;" parent="ZF2hxtfzH086-gN3r0IA-119" vertex="1">
          <mxGeometry width="89.99999999999955" height="30" as="geometry">
            <mxRectangle width="89.99999999999955" height="30" as="alternateBounds" />
          </mxGeometry>
        </mxCell>
        <mxCell id="ZF2hxtfzH086-gN3r0IA-121" value="id transit vehicle" style="shape=partialRectangle;connectable=0;fillColor=none;top=0;left=0;bottom=0;right=0;align=left;spacingLeft=6;fontStyle=5;overflow=hidden;whiteSpace=wrap;html=1;" parent="ZF2hxtfzH086-gN3r0IA-119" vertex="1">
          <mxGeometry x="89.99999999999955" width="150" height="30" as="geometry">
            <mxRectangle width="150" height="30" as="alternateBounds" />
          </mxGeometry>
        </mxCell>
        <mxCell id="ZF2hxtfzH086-gN3r0IA-122" value="" style="shape=tableRow;horizontal=0;startSize=0;swimlaneHead=0;swimlaneBody=0;fillColor=none;collapsible=0;dropTarget=0;points=[[0,0.5],[1,0.5]];portConstraint=eastwest;top=0;left=0;right=0;bottom=0;" parent="ZF2hxtfzH086-gN3r0IA-118" vertex="1">
          <mxGeometry y="60" width="239.99999999999955" height="30" as="geometry" />
        </mxCell>
        <mxCell id="ZF2hxtfzH086-gN3r0IA-123" value="varchar(500)" style="shape=partialRectangle;connectable=0;fillColor=none;top=0;left=0;bottom=0;right=0;editable=1;overflow=hidden;whiteSpace=wrap;html=1;" parent="ZF2hxtfzH086-gN3r0IA-122" vertex="1">
          <mxGeometry width="89.99999999999955" height="30" as="geometry">
            <mxRectangle width="89.99999999999955" height="30" as="alternateBounds" />
          </mxGeometry>
        </mxCell>
        <mxCell id="ZF2hxtfzH086-gN3r0IA-124" value="car company" style="shape=partialRectangle;connectable=0;fillColor=none;top=0;left=0;bottom=0;right=0;align=left;spacingLeft=6;overflow=hidden;whiteSpace=wrap;html=1;" parent="ZF2hxtfzH086-gN3r0IA-122" vertex="1">
          <mxGeometry x="89.99999999999955" width="150" height="30" as="geometry">
            <mxRectangle width="150" height="30" as="alternateBounds" />
          </mxGeometry>
        </mxCell>
        <mxCell id="ZF2hxtfzH086-gN3r0IA-125" value="" style="shape=tableRow;horizontal=0;startSize=0;swimlaneHead=0;swimlaneBody=0;fillColor=none;collapsible=0;dropTarget=0;points=[[0,0.5],[1,0.5]];portConstraint=eastwest;top=0;left=0;right=0;bottom=0;" parent="ZF2hxtfzH086-gN3r0IA-118" vertex="1">
          <mxGeometry y="90" width="239.99999999999955" height="30" as="geometry" />
        </mxCell>
        <mxCell id="ZF2hxtfzH086-gN3r0IA-126" value="varchar(500)" style="shape=partialRectangle;connectable=0;fillColor=none;top=0;left=0;bottom=0;right=0;editable=1;overflow=hidden;whiteSpace=wrap;html=1;" parent="ZF2hxtfzH086-gN3r0IA-125" vertex="1">
          <mxGeometry width="89.99999999999955" height="30" as="geometry">
            <mxRectangle width="89.99999999999955" height="30" as="alternateBounds" />
          </mxGeometry>
        </mxCell>
        <mxCell id="ZF2hxtfzH086-gN3r0IA-127" value="type" style="shape=partialRectangle;connectable=0;fillColor=none;top=0;left=0;bottom=0;right=0;align=left;spacingLeft=6;overflow=hidden;whiteSpace=wrap;html=1;" parent="ZF2hxtfzH086-gN3r0IA-125" vertex="1">
          <mxGeometry x="89.99999999999955" width="150" height="30" as="geometry">
            <mxRectangle width="150" height="30" as="alternateBounds" />
          </mxGeometry>
        </mxCell>
        <mxCell id="ZF2hxtfzH086-gN3r0IA-128" value="" style="shape=tableRow;horizontal=0;startSize=0;swimlaneHead=0;swimlaneBody=0;fillColor=none;collapsible=0;dropTarget=0;points=[[0,0.5],[1,0.5]];portConstraint=eastwest;top=0;left=0;right=0;bottom=0;" parent="ZF2hxtfzH086-gN3r0IA-118" vertex="1">
          <mxGeometry y="120" width="239.99999999999955" height="30" as="geometry" />
        </mxCell>
        <mxCell id="ZF2hxtfzH086-gN3r0IA-129" value="varchar(11)" style="shape=partialRectangle;connectable=0;fillColor=none;top=0;left=0;bottom=0;right=0;editable=1;overflow=hidden;whiteSpace=wrap;html=1;" parent="ZF2hxtfzH086-gN3r0IA-128" vertex="1">
          <mxGeometry width="89.99999999999955" height="30" as="geometry">
            <mxRectangle width="89.99999999999955" height="30" as="alternateBounds" />
          </mxGeometry>
        </mxCell>
        <mxCell id="ZF2hxtfzH086-gN3r0IA-130" value="license plate" style="shape=partialRectangle;connectable=0;fillColor=none;top=0;left=0;bottom=0;right=0;align=left;spacingLeft=6;overflow=hidden;whiteSpace=wrap;html=1;" parent="ZF2hxtfzH086-gN3r0IA-128" vertex="1">
          <mxGeometry x="89.99999999999955" width="150" height="30" as="geometry">
            <mxRectangle width="150" height="30" as="alternateBounds" />
          </mxGeometry>
        </mxCell>
        <mxCell id="ZF2hxtfzH086-gN3r0IA-131" value="" style="shape=tableRow;horizontal=0;startSize=0;swimlaneHead=0;swimlaneBody=0;fillColor=none;collapsible=0;dropTarget=0;points=[[0,0.5],[1,0.5]];portConstraint=eastwest;top=0;left=0;right=0;bottom=0;" parent="ZF2hxtfzH086-gN3r0IA-118" vertex="1">
          <mxGeometry y="150" width="239.99999999999955" height="30" as="geometry" />
        </mxCell>
        <mxCell id="ZF2hxtfzH086-gN3r0IA-132" value="int" style="shape=partialRectangle;connectable=0;fillColor=none;top=0;left=0;bottom=0;right=0;editable=1;overflow=hidden;whiteSpace=wrap;html=1;" parent="ZF2hxtfzH086-gN3r0IA-131" vertex="1">
          <mxGeometry width="89.99999999999955" height="30" as="geometry">
            <mxRectangle width="89.99999999999955" height="30" as="alternateBounds" />
          </mxGeometry>
        </mxCell>
        <mxCell id="ZF2hxtfzH086-gN3r0IA-133" value="tank volume" style="shape=partialRectangle;connectable=0;fillColor=none;top=0;left=0;bottom=0;right=0;align=left;spacingLeft=6;overflow=hidden;whiteSpace=wrap;html=1;" parent="ZF2hxtfzH086-gN3r0IA-131" vertex="1">
          <mxGeometry x="89.99999999999955" width="150" height="30" as="geometry">
            <mxRectangle width="150" height="30" as="alternateBounds" />
          </mxGeometry>
        </mxCell>
        <mxCell id="ZF2hxtfzH086-gN3r0IA-134" value="" style="shape=tableRow;horizontal=0;startSize=0;swimlaneHead=0;swimlaneBody=0;fillColor=none;collapsible=0;dropTarget=0;points=[[0,0.5],[1,0.5]];portConstraint=eastwest;top=0;left=0;right=0;bottom=0;" parent="ZF2hxtfzH086-gN3r0IA-118" vertex="1">
          <mxGeometry y="180" width="239.99999999999955" height="30" as="geometry" />
        </mxCell>
        <mxCell id="ZF2hxtfzH086-gN3r0IA-135" value="int" style="shape=partialRectangle;connectable=0;fillColor=none;top=0;left=0;bottom=0;right=0;editable=1;overflow=hidden;whiteSpace=wrap;html=1;" parent="ZF2hxtfzH086-gN3r0IA-134" vertex="1">
          <mxGeometry width="89.99999999999955" height="30" as="geometry">
            <mxRectangle width="89.99999999999955" height="30" as="alternateBounds" />
          </mxGeometry>
        </mxCell>
        <mxCell id="ZF2hxtfzH086-gN3r0IA-136" value="maximum storage volume" style="shape=partialRectangle;connectable=0;fillColor=none;top=0;left=0;bottom=0;right=0;align=left;spacingLeft=6;overflow=hidden;whiteSpace=wrap;html=1;" parent="ZF2hxtfzH086-gN3r0IA-134" vertex="1">
          <mxGeometry x="89.99999999999955" width="150" height="30" as="geometry">
            <mxRectangle width="150" height="30" as="alternateBounds" />
          </mxGeometry>
        </mxCell>
        <mxCell id="ZF2hxtfzH086-gN3r0IA-140" value="image order" style="shape=table;startSize=30;container=1;collapsible=1;childLayout=tableLayout;fixedRows=1;rowLines=0;fontStyle=1;align=center;resizeLast=1;html=1;" parent="WIyWlLk6GJQsqaUBKTNV-1" vertex="1">
          <mxGeometry x="1828" y="-1310" width="206" height="210" as="geometry" />
        </mxCell>
        <mxCell id="ZF2hxtfzH086-gN3r0IA-141" value="" style="shape=tableRow;horizontal=0;startSize=0;swimlaneHead=0;swimlaneBody=0;fillColor=none;collapsible=0;dropTarget=0;points=[[0,0.5],[1,0.5]];portConstraint=eastwest;top=0;left=0;right=0;bottom=1;" parent="ZF2hxtfzH086-gN3r0IA-140" vertex="1">
          <mxGeometry y="30" width="206" height="30" as="geometry" />
        </mxCell>
        <mxCell id="ZF2hxtfzH086-gN3r0IA-142" value="PK" style="shape=partialRectangle;connectable=0;fillColor=none;top=0;left=0;bottom=0;right=0;fontStyle=1;overflow=hidden;whiteSpace=wrap;html=1;" parent="ZF2hxtfzH086-gN3r0IA-141" vertex="1">
          <mxGeometry width="86" height="30" as="geometry">
            <mxRectangle width="86" height="30" as="alternateBounds" />
          </mxGeometry>
        </mxCell>
        <mxCell id="ZF2hxtfzH086-gN3r0IA-143" value="id image order" style="shape=partialRectangle;connectable=0;fillColor=none;top=0;left=0;bottom=0;right=0;align=left;spacingLeft=6;fontStyle=5;overflow=hidden;whiteSpace=wrap;html=1;" parent="ZF2hxtfzH086-gN3r0IA-141" vertex="1">
          <mxGeometry x="86" width="120" height="30" as="geometry">
            <mxRectangle width="120" height="30" as="alternateBounds" />
          </mxGeometry>
        </mxCell>
        <mxCell id="ZF2hxtfzH086-gN3r0IA-144" value="" style="shape=tableRow;horizontal=0;startSize=0;swimlaneHead=0;swimlaneBody=0;fillColor=none;collapsible=0;dropTarget=0;points=[[0,0.5],[1,0.5]];portConstraint=eastwest;top=0;left=0;right=0;bottom=0;" parent="ZF2hxtfzH086-gN3r0IA-140" vertex="1">
          <mxGeometry y="60" width="206" height="30" as="geometry" />
        </mxCell>
        <mxCell id="ZF2hxtfzH086-gN3r0IA-145" value="datetime" style="shape=partialRectangle;connectable=0;fillColor=none;top=0;left=0;bottom=0;right=0;editable=1;overflow=hidden;whiteSpace=wrap;html=1;" parent="ZF2hxtfzH086-gN3r0IA-144" vertex="1">
          <mxGeometry width="86" height="30" as="geometry">
            <mxRectangle width="86" height="30" as="alternateBounds" />
          </mxGeometry>
        </mxCell>
        <mxCell id="ZF2hxtfzH086-gN3r0IA-146" value="shooting date" style="shape=partialRectangle;connectable=0;fillColor=none;top=0;left=0;bottom=0;right=0;align=left;spacingLeft=6;overflow=hidden;whiteSpace=wrap;html=1;" parent="ZF2hxtfzH086-gN3r0IA-144" vertex="1">
          <mxGeometry x="86" width="120" height="30" as="geometry">
            <mxRectangle width="120" height="30" as="alternateBounds" />
          </mxGeometry>
        </mxCell>
        <mxCell id="ZF2hxtfzH086-gN3r0IA-147" value="" style="shape=tableRow;horizontal=0;startSize=0;swimlaneHead=0;swimlaneBody=0;fillColor=none;collapsible=0;dropTarget=0;points=[[0,0.5],[1,0.5]];portConstraint=eastwest;top=0;left=0;right=0;bottom=0;" parent="ZF2hxtfzH086-gN3r0IA-140" vertex="1">
          <mxGeometry y="90" width="206" height="30" as="geometry" />
        </mxCell>
        <mxCell id="ZF2hxtfzH086-gN3r0IA-148" value="varchar(500)" style="shape=partialRectangle;connectable=0;fillColor=none;top=0;left=0;bottom=0;right=0;editable=1;overflow=hidden;whiteSpace=wrap;html=1;" parent="ZF2hxtfzH086-gN3r0IA-147" vertex="1">
          <mxGeometry width="86" height="30" as="geometry">
            <mxRectangle width="86" height="30" as="alternateBounds" />
          </mxGeometry>
        </mxCell>
        <mxCell id="ZF2hxtfzH086-gN3r0IA-149" value="image 1" style="shape=partialRectangle;connectable=0;fillColor=none;top=0;left=0;bottom=0;right=0;align=left;spacingLeft=6;overflow=hidden;whiteSpace=wrap;html=1;" parent="ZF2hxtfzH086-gN3r0IA-147" vertex="1">
          <mxGeometry x="86" width="120" height="30" as="geometry">
            <mxRectangle width="120" height="30" as="alternateBounds" />
          </mxGeometry>
        </mxCell>
        <mxCell id="ZF2hxtfzH086-gN3r0IA-150" value="" style="shape=tableRow;horizontal=0;startSize=0;swimlaneHead=0;swimlaneBody=0;fillColor=none;collapsible=0;dropTarget=0;points=[[0,0.5],[1,0.5]];portConstraint=eastwest;top=0;left=0;right=0;bottom=0;" parent="ZF2hxtfzH086-gN3r0IA-140" vertex="1">
          <mxGeometry y="120" width="206" height="30" as="geometry" />
        </mxCell>
        <mxCell id="ZF2hxtfzH086-gN3r0IA-151" value="varchar(500)" style="shape=partialRectangle;connectable=0;fillColor=none;top=0;left=0;bottom=0;right=0;editable=1;overflow=hidden;whiteSpace=wrap;html=1;" parent="ZF2hxtfzH086-gN3r0IA-150" vertex="1">
          <mxGeometry width="86" height="30" as="geometry">
            <mxRectangle width="86" height="30" as="alternateBounds" />
          </mxGeometry>
        </mxCell>
        <mxCell id="ZF2hxtfzH086-gN3r0IA-152" value="image 2" style="shape=partialRectangle;connectable=0;fillColor=none;top=0;left=0;bottom=0;right=0;align=left;spacingLeft=6;overflow=hidden;whiteSpace=wrap;html=1;" parent="ZF2hxtfzH086-gN3r0IA-150" vertex="1">
          <mxGeometry x="86" width="120" height="30" as="geometry">
            <mxRectangle width="120" height="30" as="alternateBounds" />
          </mxGeometry>
        </mxCell>
        <mxCell id="ZF2hxtfzH086-gN3r0IA-153" value="" style="shape=tableRow;horizontal=0;startSize=0;swimlaneHead=0;swimlaneBody=0;fillColor=none;collapsible=0;dropTarget=0;points=[[0,0.5],[1,0.5]];portConstraint=eastwest;top=0;left=0;right=0;bottom=0;" parent="ZF2hxtfzH086-gN3r0IA-140" vertex="1">
          <mxGeometry y="150" width="206" height="30" as="geometry" />
        </mxCell>
        <mxCell id="ZF2hxtfzH086-gN3r0IA-154" value="varchar(500)" style="shape=partialRectangle;connectable=0;fillColor=none;top=0;left=0;bottom=0;right=0;editable=1;overflow=hidden;whiteSpace=wrap;html=1;" parent="ZF2hxtfzH086-gN3r0IA-153" vertex="1">
          <mxGeometry width="86" height="30" as="geometry">
            <mxRectangle width="86" height="30" as="alternateBounds" />
          </mxGeometry>
        </mxCell>
        <mxCell id="ZF2hxtfzH086-gN3r0IA-155" value="image 3" style="shape=partialRectangle;connectable=0;fillColor=none;top=0;left=0;bottom=0;right=0;align=left;spacingLeft=6;overflow=hidden;whiteSpace=wrap;html=1;" parent="ZF2hxtfzH086-gN3r0IA-153" vertex="1">
          <mxGeometry x="86" width="120" height="30" as="geometry">
            <mxRectangle width="120" height="30" as="alternateBounds" />
          </mxGeometry>
        </mxCell>
        <mxCell id="ZF2hxtfzH086-gN3r0IA-156" value="" style="shape=tableRow;horizontal=0;startSize=0;swimlaneHead=0;swimlaneBody=0;fillColor=none;collapsible=0;dropTarget=0;points=[[0,0.5],[1,0.5]];portConstraint=eastwest;top=0;left=0;right=0;bottom=0;" parent="ZF2hxtfzH086-gN3r0IA-140" vertex="1">
          <mxGeometry y="180" width="206" height="30" as="geometry" />
        </mxCell>
        <mxCell id="ZF2hxtfzH086-gN3r0IA-157" value="varchar(500)" style="shape=partialRectangle;connectable=0;fillColor=none;top=0;left=0;bottom=0;right=0;editable=1;overflow=hidden;whiteSpace=wrap;html=1;" parent="ZF2hxtfzH086-gN3r0IA-156" vertex="1">
          <mxGeometry width="86" height="30" as="geometry">
            <mxRectangle width="86" height="30" as="alternateBounds" />
          </mxGeometry>
        </mxCell>
        <mxCell id="ZF2hxtfzH086-gN3r0IA-158" value="image 4" style="shape=partialRectangle;connectable=0;fillColor=none;top=0;left=0;bottom=0;right=0;align=left;spacingLeft=6;overflow=hidden;whiteSpace=wrap;html=1;" parent="ZF2hxtfzH086-gN3r0IA-156" vertex="1">
          <mxGeometry x="86" width="120" height="30" as="geometry">
            <mxRectangle width="120" height="30" as="alternateBounds" />
          </mxGeometry>
        </mxCell>
        <mxCell id="ZF2hxtfzH086-gN3r0IA-159" value="package" style="shape=table;startSize=30;container=1;collapsible=1;childLayout=tableLayout;fixedRows=1;rowLines=0;fontStyle=1;align=center;resizeLast=1;html=1;" parent="WIyWlLk6GJQsqaUBKTNV-1" vertex="1">
          <mxGeometry x="484" y="-1660" width="210" height="270" as="geometry" />
        </mxCell>
        <mxCell id="ZF2hxtfzH086-gN3r0IA-160" value="" style="shape=tableRow;horizontal=0;startSize=0;swimlaneHead=0;swimlaneBody=0;fillColor=none;collapsible=0;dropTarget=0;points=[[0,0.5],[1,0.5]];portConstraint=eastwest;top=0;left=0;right=0;bottom=1;" parent="ZF2hxtfzH086-gN3r0IA-159" vertex="1">
          <mxGeometry y="30" width="210" height="30" as="geometry" />
        </mxCell>
        <mxCell id="ZF2hxtfzH086-gN3r0IA-161" value="PK" style="shape=partialRectangle;connectable=0;fillColor=none;top=0;left=0;bottom=0;right=0;fontStyle=1;overflow=hidden;whiteSpace=wrap;html=1;" parent="ZF2hxtfzH086-gN3r0IA-160" vertex="1">
          <mxGeometry width="90" height="30" as="geometry">
            <mxRectangle width="90" height="30" as="alternateBounds" />
          </mxGeometry>
        </mxCell>
        <mxCell id="ZF2hxtfzH086-gN3r0IA-162" value="id package" style="shape=partialRectangle;connectable=0;fillColor=none;top=0;left=0;bottom=0;right=0;align=left;spacingLeft=6;fontStyle=5;overflow=hidden;whiteSpace=wrap;html=1;" parent="ZF2hxtfzH086-gN3r0IA-160" vertex="1">
          <mxGeometry x="90" width="120" height="30" as="geometry">
            <mxRectangle width="120" height="30" as="alternateBounds" />
          </mxGeometry>
        </mxCell>
        <mxCell id="ZF2hxtfzH086-gN3r0IA-169" value="" style="shape=tableRow;horizontal=0;startSize=0;swimlaneHead=0;swimlaneBody=0;fillColor=none;collapsible=0;dropTarget=0;points=[[0,0.5],[1,0.5]];portConstraint=eastwest;top=0;left=0;right=0;bottom=0;" parent="ZF2hxtfzH086-gN3r0IA-159" vertex="1">
          <mxGeometry y="60" width="210" height="30" as="geometry" />
        </mxCell>
        <mxCell id="ZF2hxtfzH086-gN3r0IA-170" value="varchar(500)" style="shape=partialRectangle;connectable=0;fillColor=none;top=0;left=0;bottom=0;right=0;editable=1;overflow=hidden;whiteSpace=wrap;html=1;" parent="ZF2hxtfzH086-gN3r0IA-169" vertex="1">
          <mxGeometry width="90" height="30" as="geometry">
            <mxRectangle width="90" height="30" as="alternateBounds" />
          </mxGeometry>
        </mxCell>
        <mxCell id="ZF2hxtfzH086-gN3r0IA-171" value="name&amp;nbsp;Item" style="shape=partialRectangle;connectable=0;fillColor=none;top=0;left=0;bottom=0;right=0;align=left;spacingLeft=6;overflow=hidden;whiteSpace=wrap;html=1;" parent="ZF2hxtfzH086-gN3r0IA-169" vertex="1">
          <mxGeometry x="90" width="120" height="30" as="geometry">
            <mxRectangle width="120" height="30" as="alternateBounds" />
          </mxGeometry>
        </mxCell>
        <mxCell id="ZF2hxtfzH086-gN3r0IA-163" value="" style="shape=tableRow;horizontal=0;startSize=0;swimlaneHead=0;swimlaneBody=0;fillColor=none;collapsible=0;dropTarget=0;points=[[0,0.5],[1,0.5]];portConstraint=eastwest;top=0;left=0;right=0;bottom=0;" parent="ZF2hxtfzH086-gN3r0IA-159" vertex="1">
          <mxGeometry y="90" width="210" height="30" as="geometry" />
        </mxCell>
        <mxCell id="ZF2hxtfzH086-gN3r0IA-164" value="int" style="shape=partialRectangle;connectable=0;fillColor=none;top=0;left=0;bottom=0;right=0;editable=1;overflow=hidden;whiteSpace=wrap;html=1;" parent="ZF2hxtfzH086-gN3r0IA-163" vertex="1">
          <mxGeometry width="90" height="30" as="geometry">
            <mxRectangle width="90" height="30" as="alternateBounds" />
          </mxGeometry>
        </mxCell>
        <mxCell id="ZF2hxtfzH086-gN3r0IA-165" value="Volume" style="shape=partialRectangle;connectable=0;fillColor=none;top=0;left=0;bottom=0;right=0;align=left;spacingLeft=6;overflow=hidden;whiteSpace=wrap;html=1;" parent="ZF2hxtfzH086-gN3r0IA-163" vertex="1">
          <mxGeometry x="90" width="120" height="30" as="geometry">
            <mxRectangle width="120" height="30" as="alternateBounds" />
          </mxGeometry>
        </mxCell>
        <mxCell id="ZF2hxtfzH086-gN3r0IA-166" value="" style="shape=tableRow;horizontal=0;startSize=0;swimlaneHead=0;swimlaneBody=0;fillColor=none;collapsible=0;dropTarget=0;points=[[0,0.5],[1,0.5]];portConstraint=eastwest;top=0;left=0;right=0;bottom=0;" parent="ZF2hxtfzH086-gN3r0IA-159" vertex="1">
          <mxGeometry y="120" width="210" height="30" as="geometry" />
        </mxCell>
        <mxCell id="ZF2hxtfzH086-gN3r0IA-167" value="int" style="shape=partialRectangle;connectable=0;fillColor=none;top=0;left=0;bottom=0;right=0;editable=1;overflow=hidden;whiteSpace=wrap;html=1;" parent="ZF2hxtfzH086-gN3r0IA-166" vertex="1">
          <mxGeometry width="90" height="30" as="geometry">
            <mxRectangle width="90" height="30" as="alternateBounds" />
          </mxGeometry>
        </mxCell>
        <mxCell id="ZF2hxtfzH086-gN3r0IA-168" value="weight" style="shape=partialRectangle;connectable=0;fillColor=none;top=0;left=0;bottom=0;right=0;align=left;spacingLeft=6;overflow=hidden;whiteSpace=wrap;html=1;" parent="ZF2hxtfzH086-gN3r0IA-166" vertex="1">
          <mxGeometry x="90" width="120" height="30" as="geometry">
            <mxRectangle width="120" height="30" as="alternateBounds" />
          </mxGeometry>
        </mxCell>
        <mxCell id="ZF2hxtfzH086-gN3r0IA-172" value="" style="shape=tableRow;horizontal=0;startSize=0;swimlaneHead=0;swimlaneBody=0;fillColor=none;collapsible=0;dropTarget=0;points=[[0,0.5],[1,0.5]];portConstraint=eastwest;top=0;left=0;right=0;bottom=0;" parent="ZF2hxtfzH086-gN3r0IA-159" vertex="1">
          <mxGeometry y="150" width="210" height="30" as="geometry" />
        </mxCell>
        <mxCell id="ZF2hxtfzH086-gN3r0IA-173" value="varchar(500)" style="shape=partialRectangle;connectable=0;fillColor=none;top=0;left=0;bottom=0;right=0;editable=1;overflow=hidden;whiteSpace=wrap;html=1;" parent="ZF2hxtfzH086-gN3r0IA-172" vertex="1">
          <mxGeometry width="90" height="30" as="geometry">
            <mxRectangle width="90" height="30" as="alternateBounds" />
          </mxGeometry>
        </mxCell>
        <mxCell id="ZF2hxtfzH086-gN3r0IA-174" value="image 1" style="shape=partialRectangle;connectable=0;fillColor=none;top=0;left=0;bottom=0;right=0;align=left;spacingLeft=6;overflow=hidden;whiteSpace=wrap;html=1;" parent="ZF2hxtfzH086-gN3r0IA-172" vertex="1">
          <mxGeometry x="90" width="120" height="30" as="geometry">
            <mxRectangle width="120" height="30" as="alternateBounds" />
          </mxGeometry>
        </mxCell>
        <mxCell id="ZF2hxtfzH086-gN3r0IA-175" value="" style="shape=tableRow;horizontal=0;startSize=0;swimlaneHead=0;swimlaneBody=0;fillColor=none;collapsible=0;dropTarget=0;points=[[0,0.5],[1,0.5]];portConstraint=eastwest;top=0;left=0;right=0;bottom=0;" parent="ZF2hxtfzH086-gN3r0IA-159" vertex="1">
          <mxGeometry y="180" width="210" height="30" as="geometry" />
        </mxCell>
        <mxCell id="ZF2hxtfzH086-gN3r0IA-176" value="varchar(500)" style="shape=partialRectangle;connectable=0;fillColor=none;top=0;left=0;bottom=0;right=0;editable=1;overflow=hidden;whiteSpace=wrap;html=1;" parent="ZF2hxtfzH086-gN3r0IA-175" vertex="1">
          <mxGeometry width="90" height="30" as="geometry">
            <mxRectangle width="90" height="30" as="alternateBounds" />
          </mxGeometry>
        </mxCell>
        <mxCell id="ZF2hxtfzH086-gN3r0IA-177" value="image 2" style="shape=partialRectangle;connectable=0;fillColor=none;top=0;left=0;bottom=0;right=0;align=left;spacingLeft=6;overflow=hidden;whiteSpace=wrap;html=1;" parent="ZF2hxtfzH086-gN3r0IA-175" vertex="1">
          <mxGeometry x="90" width="120" height="30" as="geometry">
            <mxRectangle width="120" height="30" as="alternateBounds" />
          </mxGeometry>
        </mxCell>
        <mxCell id="ZF2hxtfzH086-gN3r0IA-178" value="" style="shape=tableRow;horizontal=0;startSize=0;swimlaneHead=0;swimlaneBody=0;fillColor=none;collapsible=0;dropTarget=0;points=[[0,0.5],[1,0.5]];portConstraint=eastwest;top=0;left=0;right=0;bottom=0;" parent="ZF2hxtfzH086-gN3r0IA-159" vertex="1">
          <mxGeometry y="210" width="210" height="30" as="geometry" />
        </mxCell>
        <mxCell id="ZF2hxtfzH086-gN3r0IA-179" value="varchar(500)" style="shape=partialRectangle;connectable=0;fillColor=none;top=0;left=0;bottom=0;right=0;editable=1;overflow=hidden;whiteSpace=wrap;html=1;" parent="ZF2hxtfzH086-gN3r0IA-178" vertex="1">
          <mxGeometry width="90" height="30" as="geometry">
            <mxRectangle width="90" height="30" as="alternateBounds" />
          </mxGeometry>
        </mxCell>
        <mxCell id="ZF2hxtfzH086-gN3r0IA-180" value="image 3" style="shape=partialRectangle;connectable=0;fillColor=none;top=0;left=0;bottom=0;right=0;align=left;spacingLeft=6;overflow=hidden;whiteSpace=wrap;html=1;" parent="ZF2hxtfzH086-gN3r0IA-178" vertex="1">
          <mxGeometry x="90" width="120" height="30" as="geometry">
            <mxRectangle width="120" height="30" as="alternateBounds" />
          </mxGeometry>
        </mxCell>
        <mxCell id="ZF2hxtfzH086-gN3r0IA-181" value="" style="shape=tableRow;horizontal=0;startSize=0;swimlaneHead=0;swimlaneBody=0;fillColor=none;collapsible=0;dropTarget=0;points=[[0,0.5],[1,0.5]];portConstraint=eastwest;top=0;left=0;right=0;bottom=0;" parent="ZF2hxtfzH086-gN3r0IA-159" vertex="1">
          <mxGeometry y="240" width="210" height="30" as="geometry" />
        </mxCell>
        <mxCell id="ZF2hxtfzH086-gN3r0IA-182" value="varchar(500)" style="shape=partialRectangle;connectable=0;fillColor=none;top=0;left=0;bottom=0;right=0;editable=1;overflow=hidden;whiteSpace=wrap;html=1;" parent="ZF2hxtfzH086-gN3r0IA-181" vertex="1">
          <mxGeometry width="90" height="30" as="geometry">
            <mxRectangle width="90" height="30" as="alternateBounds" />
          </mxGeometry>
        </mxCell>
        <mxCell id="ZF2hxtfzH086-gN3r0IA-183" value="image 4" style="shape=partialRectangle;connectable=0;fillColor=none;top=0;left=0;bottom=0;right=0;align=left;spacingLeft=6;overflow=hidden;whiteSpace=wrap;html=1;" parent="ZF2hxtfzH086-gN3r0IA-181" vertex="1">
          <mxGeometry x="90" width="120" height="30" as="geometry">
            <mxRectangle width="120" height="30" as="alternateBounds" />
          </mxGeometry>
        </mxCell>
        <mxCell id="ZF2hxtfzH086-gN3r0IA-184" value="Order shipping" style="shape=table;startSize=30;container=1;collapsible=1;childLayout=tableLayout;fixedRows=1;rowLines=0;fontStyle=1;align=center;resizeLast=1;html=1;" parent="WIyWlLk6GJQsqaUBKTNV-1" vertex="1">
          <mxGeometry x="844" y="-1560" width="230" height="240" as="geometry" />
        </mxCell>
        <mxCell id="ZF2hxtfzH086-gN3r0IA-185" value="" style="shape=tableRow;horizontal=0;startSize=0;swimlaneHead=0;swimlaneBody=0;fillColor=none;collapsible=0;dropTarget=0;points=[[0,0.5],[1,0.5]];portConstraint=eastwest;top=0;left=0;right=0;bottom=1;" parent="ZF2hxtfzH086-gN3r0IA-184" vertex="1">
          <mxGeometry y="30" width="230" height="30" as="geometry" />
        </mxCell>
        <mxCell id="ZF2hxtfzH086-gN3r0IA-186" value="PK" style="shape=partialRectangle;connectable=0;fillColor=none;top=0;left=0;bottom=0;right=0;fontStyle=1;overflow=hidden;whiteSpace=wrap;html=1;" parent="ZF2hxtfzH086-gN3r0IA-185" vertex="1">
          <mxGeometry width="90" height="30" as="geometry">
            <mxRectangle width="90" height="30" as="alternateBounds" />
          </mxGeometry>
        </mxCell>
        <mxCell id="ZF2hxtfzH086-gN3r0IA-187" value="id order" style="shape=partialRectangle;connectable=0;fillColor=none;top=0;left=0;bottom=0;right=0;align=left;spacingLeft=6;fontStyle=5;overflow=hidden;whiteSpace=wrap;html=1;" parent="ZF2hxtfzH086-gN3r0IA-185" vertex="1">
          <mxGeometry x="90" width="140" height="30" as="geometry">
            <mxRectangle width="140" height="30" as="alternateBounds" />
          </mxGeometry>
        </mxCell>
        <mxCell id="ZF2hxtfzH086-gN3r0IA-188" value="" style="shape=tableRow;horizontal=0;startSize=0;swimlaneHead=0;swimlaneBody=0;fillColor=none;collapsible=0;dropTarget=0;points=[[0,0.5],[1,0.5]];portConstraint=eastwest;top=0;left=0;right=0;bottom=0;" parent="ZF2hxtfzH086-gN3r0IA-184" vertex="1">
          <mxGeometry y="60" width="230" height="30" as="geometry" />
        </mxCell>
        <mxCell id="ZF2hxtfzH086-gN3r0IA-189" value="varchar(500)" style="shape=partialRectangle;connectable=0;fillColor=none;top=0;left=0;bottom=0;right=0;editable=1;overflow=hidden;whiteSpace=wrap;html=1;" parent="ZF2hxtfzH086-gN3r0IA-188" vertex="1">
          <mxGeometry width="90" height="30" as="geometry">
            <mxRectangle width="90" height="30" as="alternateBounds" />
          </mxGeometry>
        </mxCell>
        <mxCell id="ZF2hxtfzH086-gN3r0IA-190" value="note for shipper" style="shape=partialRectangle;connectable=0;fillColor=none;top=0;left=0;bottom=0;right=0;align=left;spacingLeft=6;overflow=hidden;whiteSpace=wrap;html=1;" parent="ZF2hxtfzH086-gN3r0IA-188" vertex="1">
          <mxGeometry x="90" width="140" height="30" as="geometry">
            <mxRectangle width="140" height="30" as="alternateBounds" />
          </mxGeometry>
        </mxCell>
        <mxCell id="ZF2hxtfzH086-gN3r0IA-191" value="" style="shape=tableRow;horizontal=0;startSize=0;swimlaneHead=0;swimlaneBody=0;fillColor=none;collapsible=0;dropTarget=0;points=[[0,0.5],[1,0.5]];portConstraint=eastwest;top=0;left=0;right=0;bottom=0;" parent="ZF2hxtfzH086-gN3r0IA-184" vertex="1">
          <mxGeometry y="90" width="230" height="30" as="geometry" />
        </mxCell>
        <mxCell id="ZF2hxtfzH086-gN3r0IA-192" value="BOOLEAN" style="shape=partialRectangle;connectable=0;fillColor=none;top=0;left=0;bottom=0;right=0;editable=1;overflow=hidden;whiteSpace=wrap;html=1;" parent="ZF2hxtfzH086-gN3r0IA-191" vertex="1">
          <mxGeometry width="90" height="30" as="geometry">
            <mxRectangle width="90" height="30" as="alternateBounds" />
          </mxGeometry>
        </mxCell>
        <mxCell id="ZF2hxtfzH086-gN3r0IA-193" value="check package" style="shape=partialRectangle;connectable=0;fillColor=none;top=0;left=0;bottom=0;right=0;align=left;spacingLeft=6;overflow=hidden;whiteSpace=wrap;html=1;" parent="ZF2hxtfzH086-gN3r0IA-191" vertex="1">
          <mxGeometry x="90" width="140" height="30" as="geometry">
            <mxRectangle width="140" height="30" as="alternateBounds" />
          </mxGeometry>
        </mxCell>
        <mxCell id="ZF2hxtfzH086-gN3r0IA-197" value="" style="shape=tableRow;horizontal=0;startSize=0;swimlaneHead=0;swimlaneBody=0;fillColor=none;collapsible=0;dropTarget=0;points=[[0,0.5],[1,0.5]];portConstraint=eastwest;top=0;left=0;right=0;bottom=0;" parent="ZF2hxtfzH086-gN3r0IA-184" vertex="1">
          <mxGeometry y="120" width="230" height="30" as="geometry" />
        </mxCell>
        <mxCell id="ZF2hxtfzH086-gN3r0IA-198" value="int" style="shape=partialRectangle;connectable=0;fillColor=none;top=0;left=0;bottom=0;right=0;editable=1;overflow=hidden;whiteSpace=wrap;html=1;" parent="ZF2hxtfzH086-gN3r0IA-197" vertex="1">
          <mxGeometry width="90" height="30" as="geometry">
            <mxRectangle width="90" height="30" as="alternateBounds" />
          </mxGeometry>
        </mxCell>
        <mxCell id="ZF2hxtfzH086-gN3r0IA-199" value="collection money" style="shape=partialRectangle;connectable=0;fillColor=none;top=0;left=0;bottom=0;right=0;align=left;spacingLeft=6;overflow=hidden;whiteSpace=wrap;html=1;" parent="ZF2hxtfzH086-gN3r0IA-197" vertex="1">
          <mxGeometry x="90" width="140" height="30" as="geometry">
            <mxRectangle width="140" height="30" as="alternateBounds" />
          </mxGeometry>
        </mxCell>
        <mxCell id="ZF2hxtfzH086-gN3r0IA-200" value="" style="shape=tableRow;horizontal=0;startSize=0;swimlaneHead=0;swimlaneBody=0;fillColor=none;collapsible=0;dropTarget=0;points=[[0,0.5],[1,0.5]];portConstraint=eastwest;top=0;left=0;right=0;bottom=0;" parent="ZF2hxtfzH086-gN3r0IA-184" vertex="1">
          <mxGeometry y="150" width="230" height="30" as="geometry" />
        </mxCell>
        <mxCell id="ZF2hxtfzH086-gN3r0IA-201" value="int" style="shape=partialRectangle;connectable=0;fillColor=none;top=0;left=0;bottom=0;right=0;editable=1;overflow=hidden;whiteSpace=wrap;html=1;" parent="ZF2hxtfzH086-gN3r0IA-200" vertex="1">
          <mxGeometry width="90" height="30" as="geometry">
            <mxRectangle width="90" height="30" as="alternateBounds" />
          </mxGeometry>
        </mxCell>
        <mxCell id="ZF2hxtfzH086-gN3r0IA-202" value="transportation cost" style="shape=partialRectangle;connectable=0;fillColor=none;top=0;left=0;bottom=0;right=0;align=left;spacingLeft=6;overflow=hidden;whiteSpace=wrap;html=1;" parent="ZF2hxtfzH086-gN3r0IA-200" vertex="1">
          <mxGeometry x="90" width="140" height="30" as="geometry">
            <mxRectangle width="140" height="30" as="alternateBounds" />
          </mxGeometry>
        </mxCell>
        <mxCell id="ZF2hxtfzH086-gN3r0IA-204" value="" style="shape=tableRow;horizontal=0;startSize=0;swimlaneHead=0;swimlaneBody=0;fillColor=none;collapsible=0;dropTarget=0;points=[[0,0.5],[1,0.5]];portConstraint=eastwest;top=0;left=0;right=0;bottom=0;" parent="ZF2hxtfzH086-gN3r0IA-184" vertex="1">
          <mxGeometry y="180" width="230" height="30" as="geometry" />
        </mxCell>
        <mxCell id="ZF2hxtfzH086-gN3r0IA-205" value="datetime" style="shape=partialRectangle;connectable=0;fillColor=none;top=0;left=0;bottom=0;right=0;editable=1;overflow=hidden;whiteSpace=wrap;html=1;" parent="ZF2hxtfzH086-gN3r0IA-204" vertex="1">
          <mxGeometry width="90" height="30" as="geometry">
            <mxRectangle width="90" height="30" as="alternateBounds" />
          </mxGeometry>
        </mxCell>
        <mxCell id="ZF2hxtfzH086-gN3r0IA-206" value="order date" style="shape=partialRectangle;connectable=0;fillColor=none;top=0;left=0;bottom=0;right=0;align=left;spacingLeft=6;overflow=hidden;whiteSpace=wrap;html=1;" parent="ZF2hxtfzH086-gN3r0IA-204" vertex="1">
          <mxGeometry x="90" width="140" height="30" as="geometry">
            <mxRectangle width="140" height="30" as="alternateBounds" />
          </mxGeometry>
        </mxCell>
        <mxCell id="ZF2hxtfzH086-gN3r0IA-254" value="" style="shape=tableRow;horizontal=0;startSize=0;swimlaneHead=0;swimlaneBody=0;fillColor=none;collapsible=0;dropTarget=0;points=[[0,0.5],[1,0.5]];portConstraint=eastwest;top=0;left=0;right=0;bottom=0;" parent="ZF2hxtfzH086-gN3r0IA-184" vertex="1">
          <mxGeometry y="210" width="230" height="30" as="geometry" />
        </mxCell>
        <mxCell id="ZF2hxtfzH086-gN3r0IA-255" value="BOOLEAN" style="shape=partialRectangle;connectable=0;fillColor=none;top=0;left=0;bottom=0;right=0;editable=1;overflow=hidden;whiteSpace=wrap;html=1;" parent="ZF2hxtfzH086-gN3r0IA-254" vertex="1">
          <mxGeometry width="90" height="30" as="geometry">
            <mxRectangle width="90" height="30" as="alternateBounds" />
          </mxGeometry>
        </mxCell>
        <mxCell id="ZF2hxtfzH086-gN3r0IA-256" value="status" style="shape=partialRectangle;connectable=0;fillColor=none;top=0;left=0;bottom=0;right=0;align=left;spacingLeft=6;overflow=hidden;whiteSpace=wrap;html=1;" parent="ZF2hxtfzH086-gN3r0IA-254" vertex="1">
          <mxGeometry x="90" width="140" height="30" as="geometry">
            <mxRectangle width="140" height="30" as="alternateBounds" />
          </mxGeometry>
        </mxCell>
        <mxCell id="ZF2hxtfzH086-gN3r0IA-203" value="" style="edgeStyle=entityRelationEdgeStyle;fontSize=12;html=1;endArrow=ERoneToMany;startArrow=ERmandOne;rounded=0;elbow=vertical;" parent="WIyWlLk6GJQsqaUBKTNV-1" source="ZF2hxtfzH086-gN3r0IA-223" target="ZF2hxtfzH086-gN3r0IA-184" edge="1">
          <mxGeometry width="100" height="100" relative="1" as="geometry">
            <mxPoint x="994" y="-1200" as="sourcePoint" />
            <mxPoint x="1094" y="-1300" as="targetPoint" />
          </mxGeometry>
        </mxCell>
        <mxCell id="ZF2hxtfzH086-gN3r0IA-207" value="current location" style="shape=table;startSize=30;container=1;collapsible=1;childLayout=tableLayout;fixedRows=1;rowLines=0;fontStyle=1;align=center;resizeLast=1;html=1;" parent="WIyWlLk6GJQsqaUBKTNV-1" vertex="1">
          <mxGeometry x="1459" y="-1470" width="215" height="90" as="geometry" />
        </mxCell>
        <mxCell id="ZF2hxtfzH086-gN3r0IA-208" value="" style="shape=tableRow;horizontal=0;startSize=0;swimlaneHead=0;swimlaneBody=0;fillColor=none;collapsible=0;dropTarget=0;points=[[0,0.5],[1,0.5]];portConstraint=eastwest;top=0;left=0;right=0;bottom=1;" parent="ZF2hxtfzH086-gN3r0IA-207" vertex="1">
          <mxGeometry y="30" width="215" height="30" as="geometry" />
        </mxCell>
        <mxCell id="ZF2hxtfzH086-gN3r0IA-209" value="PK" style="shape=partialRectangle;connectable=0;fillColor=none;top=0;left=0;bottom=0;right=0;fontStyle=1;overflow=hidden;whiteSpace=wrap;html=1;" parent="ZF2hxtfzH086-gN3r0IA-208" vertex="1">
          <mxGeometry width="75" height="30" as="geometry">
            <mxRectangle width="75" height="30" as="alternateBounds" />
          </mxGeometry>
        </mxCell>
        <mxCell id="ZF2hxtfzH086-gN3r0IA-210" value="id current location" style="shape=partialRectangle;connectable=0;fillColor=none;top=0;left=0;bottom=0;right=0;align=left;spacingLeft=6;fontStyle=5;overflow=hidden;whiteSpace=wrap;html=1;" parent="ZF2hxtfzH086-gN3r0IA-208" vertex="1">
          <mxGeometry x="75" width="140" height="30" as="geometry">
            <mxRectangle width="140" height="30" as="alternateBounds" />
          </mxGeometry>
        </mxCell>
        <mxCell id="ZF2hxtfzH086-gN3r0IA-211" value="" style="shape=tableRow;horizontal=0;startSize=0;swimlaneHead=0;swimlaneBody=0;fillColor=none;collapsible=0;dropTarget=0;points=[[0,0.5],[1,0.5]];portConstraint=eastwest;top=0;left=0;right=0;bottom=0;" parent="ZF2hxtfzH086-gN3r0IA-207" vertex="1">
          <mxGeometry y="60" width="215" height="30" as="geometry" />
        </mxCell>
        <mxCell id="ZF2hxtfzH086-gN3r0IA-212" value="datetime" style="shape=partialRectangle;connectable=0;fillColor=none;top=0;left=0;bottom=0;right=0;editable=1;overflow=hidden;whiteSpace=wrap;html=1;" parent="ZF2hxtfzH086-gN3r0IA-211" vertex="1">
          <mxGeometry width="75" height="30" as="geometry">
            <mxRectangle width="75" height="30" as="alternateBounds" />
          </mxGeometry>
        </mxCell>
        <mxCell id="ZF2hxtfzH086-gN3r0IA-213" value="date" style="shape=partialRectangle;connectable=0;fillColor=none;top=0;left=0;bottom=0;right=0;align=left;spacingLeft=6;overflow=hidden;whiteSpace=wrap;html=1;" parent="ZF2hxtfzH086-gN3r0IA-211" vertex="1">
          <mxGeometry x="75" width="140" height="30" as="geometry">
            <mxRectangle width="140" height="30" as="alternateBounds" />
          </mxGeometry>
        </mxCell>
        <mxCell id="ZF2hxtfzH086-gN3r0IA-223" value="receiver" style="shape=table;startSize=30;container=1;collapsible=1;childLayout=tableLayout;fixedRows=1;rowLines=0;fontStyle=1;align=center;resizeLast=1;html=1;" parent="WIyWlLk6GJQsqaUBKTNV-1" vertex="1">
          <mxGeometry x="499" y="-1270" width="180" height="90" as="geometry" />
        </mxCell>
        <mxCell id="ZF2hxtfzH086-gN3r0IA-224" value="" style="shape=tableRow;horizontal=0;startSize=0;swimlaneHead=0;swimlaneBody=0;fillColor=none;collapsible=0;dropTarget=0;points=[[0,0.5],[1,0.5]];portConstraint=eastwest;top=0;left=0;right=0;bottom=1;" parent="ZF2hxtfzH086-gN3r0IA-223" vertex="1">
          <mxGeometry y="30" width="180" height="30" as="geometry" />
        </mxCell>
        <mxCell id="ZF2hxtfzH086-gN3r0IA-225" value="PK" style="shape=partialRectangle;connectable=0;fillColor=none;top=0;left=0;bottom=0;right=0;fontStyle=1;overflow=hidden;whiteSpace=wrap;html=1;" parent="ZF2hxtfzH086-gN3r0IA-224" vertex="1">
          <mxGeometry width="30" height="30" as="geometry">
            <mxRectangle width="30" height="30" as="alternateBounds" />
          </mxGeometry>
        </mxCell>
        <mxCell id="ZF2hxtfzH086-gN3r0IA-226" value="" style="shape=partialRectangle;connectable=0;fillColor=none;top=0;left=0;bottom=0;right=0;align=left;spacingLeft=6;fontStyle=5;overflow=hidden;whiteSpace=wrap;html=1;" parent="ZF2hxtfzH086-gN3r0IA-224" vertex="1">
          <mxGeometry x="30" width="150" height="30" as="geometry">
            <mxRectangle width="150" height="30" as="alternateBounds" />
          </mxGeometry>
        </mxCell>
        <mxCell id="ZF2hxtfzH086-gN3r0IA-227" value="" style="shape=tableRow;horizontal=0;startSize=0;swimlaneHead=0;swimlaneBody=0;fillColor=none;collapsible=0;dropTarget=0;points=[[0,0.5],[1,0.5]];portConstraint=eastwest;top=0;left=0;right=0;bottom=0;" parent="ZF2hxtfzH086-gN3r0IA-223" vertex="1">
          <mxGeometry y="60" width="180" height="30" as="geometry" />
        </mxCell>
        <mxCell id="ZF2hxtfzH086-gN3r0IA-228" value="" style="shape=partialRectangle;connectable=0;fillColor=none;top=0;left=0;bottom=0;right=0;editable=1;overflow=hidden;whiteSpace=wrap;html=1;" parent="ZF2hxtfzH086-gN3r0IA-227" vertex="1">
          <mxGeometry width="30" height="30" as="geometry">
            <mxRectangle width="30" height="30" as="alternateBounds" />
          </mxGeometry>
        </mxCell>
        <mxCell id="ZF2hxtfzH086-gN3r0IA-229" value="" style="shape=partialRectangle;connectable=0;fillColor=none;top=0;left=0;bottom=0;right=0;align=left;spacingLeft=6;overflow=hidden;whiteSpace=wrap;html=1;" parent="ZF2hxtfzH086-gN3r0IA-227" vertex="1">
          <mxGeometry x="30" width="150" height="30" as="geometry">
            <mxRectangle width="150" height="30" as="alternateBounds" />
          </mxGeometry>
        </mxCell>
        <mxCell id="ZF2hxtfzH086-gN3r0IA-249" value="điều kiện" style="swimlane;fontStyle=0;childLayout=stackLayout;horizontal=1;startSize=30;horizontalStack=0;resizeParent=1;resizeParentMax=0;resizeLast=0;collapsible=1;marginBottom=0;whiteSpace=wrap;html=1;" parent="WIyWlLk6GJQsqaUBKTNV-1" vertex="1">
          <mxGeometry x="884" y="-1180" width="200" height="120" as="geometry" />
        </mxCell>
        <mxCell id="ZF2hxtfzH086-gN3r0IA-250" value="- id sender khác id receiver và không được null" style="text;strokeColor=none;fillColor=none;align=left;verticalAlign=middle;spacingLeft=4;spacingRight=4;overflow=hidden;points=[[0,0.5],[1,0.5]];portConstraint=eastwest;rotatable=0;whiteSpace=wrap;html=1;" parent="ZF2hxtfzH086-gN3r0IA-249" vertex="1">
          <mxGeometry y="30" width="200" height="30" as="geometry" />
        </mxCell>
        <mxCell id="XdSTU6Jku33HvT6-iugC-25" value="- id package không được null" style="text;strokeColor=none;fillColor=none;align=left;verticalAlign=middle;spacingLeft=4;spacingRight=4;overflow=hidden;points=[[0,0.5],[1,0.5]];portConstraint=eastwest;rotatable=0;whiteSpace=wrap;html=1;" parent="ZF2hxtfzH086-gN3r0IA-249" vertex="1">
          <mxGeometry y="60" width="200" height="30" as="geometry" />
        </mxCell>
        <mxCell id="XdSTU6Jku33HvT6-iugC-26" value="- order date sẽ được lấy tự động theo thời gian hàng được tạo" style="text;strokeColor=none;fillColor=none;align=left;verticalAlign=middle;spacingLeft=4;spacingRight=4;overflow=hidden;points=[[0,0.5],[1,0.5]];portConstraint=eastwest;rotatable=0;whiteSpace=wrap;html=1;" parent="ZF2hxtfzH086-gN3r0IA-249" vertex="1">
          <mxGeometry y="90" width="200" height="30" as="geometry" />
        </mxCell>
        <mxCell id="ZF2hxtfzH086-gN3r0IA-253" value="" style="endArrow=classic;html=1;rounded=0;elbow=vertical;entryX=0.5;entryY=0;entryDx=0;entryDy=0;" parent="WIyWlLk6GJQsqaUBKTNV-1" source="ZF2hxtfzH086-gN3r0IA-184" target="ZF2hxtfzH086-gN3r0IA-249" edge="1">
          <mxGeometry width="50" height="50" relative="1" as="geometry">
            <mxPoint x="1144" y="-1180" as="sourcePoint" />
            <mxPoint x="1194" y="-1230" as="targetPoint" />
          </mxGeometry>
        </mxCell>
        <mxCell id="ZF2hxtfzH086-gN3r0IA-258" value="" style="endArrow=classic;html=1;rounded=0;elbow=vertical;exitX=1;exitY=0.5;exitDx=0;exitDy=0;entryX=0;entryY=0.5;entryDx=0;entryDy=0;" parent="WIyWlLk6GJQsqaUBKTNV-1" source="BdoXRXtc4Kc0ySHsWEAi-10" target="ZF2hxtfzH086-gN3r0IA-261" edge="1">
          <mxGeometry width="50" height="50" relative="1" as="geometry">
            <mxPoint x="1654" y="-2510" as="sourcePoint" />
            <mxPoint x="1704" y="-2610" as="targetPoint" />
          </mxGeometry>
        </mxCell>
        <mxCell id="ZF2hxtfzH086-gN3r0IA-259" value="điều kiện" style="swimlane;fontStyle=0;childLayout=stackLayout;horizontal=1;startSize=30;horizontalStack=0;resizeParent=1;resizeParentMax=0;resizeLast=0;collapsible=1;marginBottom=0;whiteSpace=wrap;html=1;" parent="WIyWlLk6GJQsqaUBKTNV-1" vertex="1">
          <mxGeometry x="1434" y="-2680" width="280" height="210" as="geometry" />
        </mxCell>
        <mxCell id="ZF2hxtfzH086-gN3r0IA-260" value="- cccd chỉ được nhập số" style="text;strokeColor=none;fillColor=none;align=left;verticalAlign=middle;spacingLeft=4;spacingRight=4;overflow=hidden;points=[[0,0.5],[1,0.5]];portConstraint=eastwest;rotatable=0;whiteSpace=wrap;html=1;" parent="ZF2hxtfzH086-gN3r0IA-259" vertex="1">
          <mxGeometry y="30" width="280" height="30" as="geometry" />
        </mxCell>
        <mxCell id="ZF2hxtfzH086-gN3r0IA-261" value="- name không được chứa số" style="text;strokeColor=none;fillColor=none;align=left;verticalAlign=middle;spacingLeft=4;spacingRight=4;overflow=hidden;points=[[0,0.5],[1,0.5]];portConstraint=eastwest;rotatable=0;whiteSpace=wrap;html=1;" parent="ZF2hxtfzH086-gN3r0IA-259" vertex="1">
          <mxGeometry y="60" width="280" height="30" as="geometry" />
        </mxCell>
        <mxCell id="ZF2hxtfzH086-gN3r0IA-262" value="- email phải hợp lệ với định dạng" style="text;strokeColor=none;fillColor=none;align=left;verticalAlign=middle;spacingLeft=4;spacingRight=4;overflow=hidden;points=[[0,0.5],[1,0.5]];portConstraint=eastwest;rotatable=0;whiteSpace=wrap;html=1;" parent="ZF2hxtfzH086-gN3r0IA-259" vertex="1">
          <mxGeometry y="90" width="280" height="30" as="geometry" />
        </mxCell>
        <mxCell id="ZF2hxtfzH086-gN3r0IA-263" value="- spending chỉ được chứa số" style="text;strokeColor=none;fillColor=none;align=left;verticalAlign=middle;spacingLeft=4;spacingRight=4;overflow=hidden;points=[[0,0.5],[1,0.5]];portConstraint=eastwest;rotatable=0;whiteSpace=wrap;html=1;" parent="ZF2hxtfzH086-gN3r0IA-259" vertex="1">
          <mxGeometry y="120" width="280" height="30" as="geometry" />
        </mxCell>
        <mxCell id="XdSTU6Jku33HvT6-iugC-29" value="- delivery address không được null" style="text;strokeColor=none;fillColor=none;align=left;verticalAlign=middle;spacingLeft=4;spacingRight=4;overflow=hidden;points=[[0,0.5],[1,0.5]];portConstraint=eastwest;rotatable=0;whiteSpace=wrap;html=1;" parent="ZF2hxtfzH086-gN3r0IA-259" vertex="1">
          <mxGeometry y="150" width="280" height="30" as="geometry" />
        </mxCell>
        <mxCell id="rW63hfcLeEp5ZlImFfPp-3" value="&lt;font color=&quot;#ff0000&quot;&gt;* lưu ý: đối với shipper và manager thì phải có image cccd trước và sau và có cả ảnh selfie&lt;/font&gt;" style="text;strokeColor=none;fillColor=none;align=left;verticalAlign=middle;spacingLeft=4;spacingRight=4;overflow=hidden;points=[[0,0.5],[1,0.5]];portConstraint=eastwest;rotatable=0;whiteSpace=wrap;html=1;" vertex="1" parent="ZF2hxtfzH086-gN3r0IA-259">
          <mxGeometry y="180" width="280" height="30" as="geometry" />
        </mxCell>
        <mxCell id="ZF2hxtfzH086-gN3r0IA-265" value="điều kiện" style="swimlane;fontStyle=0;childLayout=stackLayout;horizontal=1;startSize=30;horizontalStack=0;resizeParent=1;resizeParentMax=0;resizeLast=0;collapsible=1;marginBottom=0;whiteSpace=wrap;html=1;" parent="WIyWlLk6GJQsqaUBKTNV-1" vertex="1">
          <mxGeometry x="1379" y="-2140" width="351" height="60" as="geometry" />
        </mxCell>
        <mxCell id="ZF2hxtfzH086-gN3r0IA-266" value="- phone number chỉ được chứa số và đúng định dạn của số điện thoại việt nam" style="text;strokeColor=none;fillColor=none;align=left;verticalAlign=middle;spacingLeft=4;spacingRight=4;overflow=hidden;points=[[0,0.5],[1,0.5]];portConstraint=eastwest;rotatable=0;whiteSpace=wrap;html=1;" parent="ZF2hxtfzH086-gN3r0IA-265" vertex="1">
          <mxGeometry y="30" width="351" height="30" as="geometry" />
        </mxCell>
        <mxCell id="ZF2hxtfzH086-gN3r0IA-269" value="" style="endArrow=classic;html=1;rounded=0;elbow=vertical;exitX=0.75;exitY=0;exitDx=0;exitDy=0;entryX=0;entryY=0.5;entryDx=0;entryDy=0;" parent="WIyWlLk6GJQsqaUBKTNV-1" source="eji1tCNYbOfeHdif-Vnv-46" target="ZF2hxtfzH086-gN3r0IA-265" edge="1">
          <mxGeometry width="50" height="50" relative="1" as="geometry">
            <mxPoint x="1664" y="-2080" as="sourcePoint" />
            <mxPoint x="1714" y="-2130" as="targetPoint" />
          </mxGeometry>
        </mxCell>
        <mxCell id="ZF2hxtfzH086-gN3r0IA-270" value="điều kiện" style="swimlane;fontStyle=0;childLayout=stackLayout;horizontal=1;startSize=30;horizontalStack=0;resizeParent=1;resizeParentMax=0;resizeLast=0;collapsible=1;marginBottom=0;whiteSpace=wrap;html=1;" parent="WIyWlLk6GJQsqaUBKTNV-1" vertex="1">
          <mxGeometry x="1794" y="-1880" width="250" height="120" as="geometry" />
        </mxCell>
        <mxCell id="ZF2hxtfzH086-gN3r0IA-271" value="- license plates phải theo định dạng và không nulll" style="text;strokeColor=none;fillColor=none;align=left;verticalAlign=middle;spacingLeft=4;spacingRight=4;overflow=hidden;points=[[0,0.5],[1,0.5]];portConstraint=eastwest;rotatable=0;whiteSpace=wrap;html=1;" parent="ZF2hxtfzH086-gN3r0IA-270" vertex="1">
          <mxGeometry y="30" width="250" height="30" as="geometry" />
        </mxCell>
        <mxCell id="XdSTU6Jku33HvT6-iugC-15" value="- các cột chứa image không được null" style="text;strokeColor=none;fillColor=none;align=left;verticalAlign=middle;spacingLeft=4;spacingRight=4;overflow=hidden;points=[[0,0.5],[1,0.5]];portConstraint=eastwest;rotatable=0;whiteSpace=wrap;html=1;" parent="ZF2hxtfzH086-gN3r0IA-270" vertex="1">
          <mxGeometry y="60" width="250" height="30" as="geometry" />
        </mxCell>
        <mxCell id="XdSTU6Jku33HvT6-iugC-18" value="- khoá ngoại account không được null" style="text;strokeColor=none;fillColor=none;align=left;verticalAlign=middle;spacingLeft=4;spacingRight=4;overflow=hidden;points=[[0,0.5],[1,0.5]];portConstraint=eastwest;rotatable=0;whiteSpace=wrap;html=1;" parent="ZF2hxtfzH086-gN3r0IA-270" vertex="1">
          <mxGeometry y="90" width="250" height="30" as="geometry" />
        </mxCell>
        <mxCell id="ZF2hxtfzH086-gN3r0IA-272" value="" style="endArrow=classic;html=1;rounded=0;elbow=vertical;entryX=0;entryY=0.5;entryDx=0;entryDy=0;exitX=1;exitY=0.5;exitDx=0;exitDy=0;" parent="WIyWlLk6GJQsqaUBKTNV-1" source="ZF2hxtfzH086-gN3r0IA-102" target="ZF2hxtfzH086-gN3r0IA-270" edge="1">
          <mxGeometry width="50" height="50" relative="1" as="geometry">
            <mxPoint x="1904" y="-1840" as="sourcePoint" />
            <mxPoint x="1954" y="-1890" as="targetPoint" />
          </mxGeometry>
        </mxCell>
        <mxCell id="ZF2hxtfzH086-gN3r0IA-273" value="điều kiện" style="swimlane;fontStyle=0;childLayout=stackLayout;horizontal=1;startSize=30;horizontalStack=0;resizeParent=1;resizeParentMax=0;resizeLast=0;collapsible=1;marginBottom=0;whiteSpace=wrap;html=1;" parent="WIyWlLk6GJQsqaUBKTNV-1" vertex="1">
          <mxGeometry x="2344" y="-1185" width="210" height="60" as="geometry" />
        </mxCell>
        <mxCell id="ZF2hxtfzH086-gN3r0IA-274" value="- license plates phải theo định dạng" style="text;strokeColor=none;fillColor=none;align=left;verticalAlign=middle;spacingLeft=4;spacingRight=4;overflow=hidden;points=[[0,0.5],[1,0.5]];portConstraint=eastwest;rotatable=0;whiteSpace=wrap;html=1;" parent="ZF2hxtfzH086-gN3r0IA-273" vertex="1">
          <mxGeometry y="30" width="210" height="30" as="geometry" />
        </mxCell>
        <mxCell id="ZF2hxtfzH086-gN3r0IA-275" value="" style="endArrow=classic;html=1;rounded=0;elbow=vertical;" parent="WIyWlLk6GJQsqaUBKTNV-1" source="ZF2hxtfzH086-gN3r0IA-118" target="ZF2hxtfzH086-gN3r0IA-273" edge="1">
          <mxGeometry width="50" height="50" relative="1" as="geometry">
            <mxPoint x="2274" y="-1210" as="sourcePoint" />
            <mxPoint x="2484" y="-1225" as="targetPoint" />
          </mxGeometry>
        </mxCell>
        <mxCell id="ZF2hxtfzH086-gN3r0IA-282" value="điều kiện" style="swimlane;fontStyle=0;childLayout=stackLayout;horizontal=1;startSize=30;horizontalStack=0;resizeParent=1;resizeParentMax=0;resizeLast=0;collapsible=1;marginBottom=0;whiteSpace=wrap;html=1;" parent="WIyWlLk6GJQsqaUBKTNV-1" vertex="1">
          <mxGeometry x="1434" y="-1260" width="265" height="120" as="geometry" />
        </mxCell>
        <mxCell id="ZF2hxtfzH086-gN3r0IA-283" value="- id post office hoặc id transit vehicle phải null, id còn lại thì không được null" style="text;strokeColor=none;fillColor=none;align=left;verticalAlign=middle;spacingLeft=4;spacingRight=4;overflow=hidden;points=[[0,0.5],[1,0.5]];portConstraint=eastwest;rotatable=0;whiteSpace=wrap;html=1;" parent="ZF2hxtfzH086-gN3r0IA-282" vertex="1">
          <mxGeometry y="30" width="265" height="30" as="geometry" />
        </mxCell>
        <mxCell id="ZF2hxtfzH086-gN3r0IA-285" value="- id image order không được null" style="text;strokeColor=none;fillColor=none;align=left;verticalAlign=middle;spacingLeft=4;spacingRight=4;overflow=hidden;points=[[0,0.5],[1,0.5]];portConstraint=eastwest;rotatable=0;whiteSpace=wrap;html=1;" parent="ZF2hxtfzH086-gN3r0IA-282" vertex="1">
          <mxGeometry y="60" width="265" height="30" as="geometry" />
        </mxCell>
        <mxCell id="ZF2hxtfzH086-gN3r0IA-286" value="- khoá ngoại của order history không được null" style="text;strokeColor=none;fillColor=none;align=left;verticalAlign=middle;spacingLeft=4;spacingRight=4;overflow=hidden;points=[[0,0.5],[1,0.5]];portConstraint=eastwest;rotatable=0;whiteSpace=wrap;html=1;" parent="ZF2hxtfzH086-gN3r0IA-282" vertex="1">
          <mxGeometry y="90" width="265" height="30" as="geometry" />
        </mxCell>
        <mxCell id="ZF2hxtfzH086-gN3r0IA-284" value="" style="endArrow=classic;html=1;rounded=0;elbow=vertical;" parent="WIyWlLk6GJQsqaUBKTNV-1" source="ZF2hxtfzH086-gN3r0IA-207" target="ZF2hxtfzH086-gN3r0IA-282" edge="1">
          <mxGeometry width="50" height="50" relative="1" as="geometry">
            <mxPoint x="1530" y="-1302.5" as="sourcePoint" />
            <mxPoint x="1574" y="-1207.5" as="targetPoint" />
          </mxGeometry>
        </mxCell>
        <mxCell id="ZF2hxtfzH086-gN3r0IA-287" value="điều kiện" style="swimlane;fontStyle=0;childLayout=stackLayout;horizontal=1;startSize=30;horizontalStack=0;resizeParent=1;resizeParentMax=0;resizeLast=0;collapsible=1;marginBottom=0;whiteSpace=wrap;html=1;" parent="WIyWlLk6GJQsqaUBKTNV-1" vertex="1">
          <mxGeometry x="1804" y="-970" width="265" height="90" as="geometry" />
        </mxCell>
        <mxCell id="ZF2hxtfzH086-gN3r0IA-288" value="- image 1 2 3 4 không được null hoặc trùng nhau" style="text;strokeColor=none;fillColor=none;align=left;verticalAlign=middle;spacingLeft=4;spacingRight=4;overflow=hidden;points=[[0,0.5],[1,0.5]];portConstraint=eastwest;rotatable=0;whiteSpace=wrap;html=1;" parent="ZF2hxtfzH086-gN3r0IA-287" vertex="1">
          <mxGeometry y="30" width="265" height="30" as="geometry" />
        </mxCell>
        <mxCell id="ZF2hxtfzH086-gN3r0IA-290" value="- shooting date không được null mà lấy giá trị mặc định của hệ thống" style="text;strokeColor=none;fillColor=none;align=left;verticalAlign=middle;spacingLeft=4;spacingRight=4;overflow=hidden;points=[[0,0.5],[1,0.5]];portConstraint=eastwest;rotatable=0;whiteSpace=wrap;html=1;" parent="ZF2hxtfzH086-gN3r0IA-287" vertex="1">
          <mxGeometry y="60" width="265" height="30" as="geometry" />
        </mxCell>
        <mxCell id="ZF2hxtfzH086-gN3r0IA-291" value="" style="endArrow=classic;html=1;rounded=0;elbow=vertical;" parent="WIyWlLk6GJQsqaUBKTNV-1" source="ZF2hxtfzH086-gN3r0IA-140" target="ZF2hxtfzH086-gN3r0IA-287" edge="1">
          <mxGeometry width="50" height="50" relative="1" as="geometry">
            <mxPoint x="1968.3688524590166" y="-1050" as="sourcePoint" />
            <mxPoint x="1968" y="-857.5" as="targetPoint" />
          </mxGeometry>
        </mxCell>
        <mxCell id="XdSTU6Jku33HvT6-iugC-0" value="" style="edgeStyle=entityRelationEdgeStyle;fontSize=12;html=1;endArrow=ERoneToMany;startArrow=ERmandOne;rounded=0;entryX=1;entryY=0.5;entryDx=0;entryDy=0;" parent="WIyWlLk6GJQsqaUBKTNV-1" source="ZF2hxtfzH086-gN3r0IA-140" target="ZF2hxtfzH086-gN3r0IA-211" edge="1">
          <mxGeometry width="100" height="100" relative="1" as="geometry">
            <mxPoint x="2224" y="-1120" as="sourcePoint" />
            <mxPoint x="2324" y="-1220" as="targetPoint" />
          </mxGeometry>
        </mxCell>
        <mxCell id="XdSTU6Jku33HvT6-iugC-1" value="điều kiện" style="swimlane;fontStyle=0;childLayout=stackLayout;horizontal=1;startSize=30;horizontalStack=0;resizeParent=1;resizeParentMax=0;resizeLast=0;collapsible=1;marginBottom=0;whiteSpace=wrap;html=1;" parent="WIyWlLk6GJQsqaUBKTNV-1" vertex="1">
          <mxGeometry x="2094" y="-1605" width="210" height="60" as="geometry" />
        </mxCell>
        <mxCell id="XdSTU6Jku33HvT6-iugC-2" value="- khoá ngoại manager không được null" style="text;strokeColor=none;fillColor=none;align=left;verticalAlign=middle;spacingLeft=4;spacingRight=4;overflow=hidden;points=[[0,0.5],[1,0.5]];portConstraint=eastwest;rotatable=0;whiteSpace=wrap;html=1;" parent="XdSTU6Jku33HvT6-iugC-1" vertex="1">
          <mxGeometry y="30" width="210" height="30" as="geometry" />
        </mxCell>
        <mxCell id="XdSTU6Jku33HvT6-iugC-3" value="" style="endArrow=classic;html=1;rounded=0;elbow=vertical;exitX=1;exitY=0.5;exitDx=0;exitDy=0;" parent="WIyWlLk6GJQsqaUBKTNV-1" source="ZF2hxtfzH086-gN3r0IA-109" target="XdSTU6Jku33HvT6-iugC-1" edge="1">
          <mxGeometry width="50" height="50" relative="1" as="geometry">
            <mxPoint x="2200" y="-1680" as="sourcePoint" />
            <mxPoint x="2244" y="-1585" as="targetPoint" />
          </mxGeometry>
        </mxCell>
        <mxCell id="XdSTU6Jku33HvT6-iugC-11" value="điều kiện" style="swimlane;fontStyle=0;childLayout=stackLayout;horizontal=1;startSize=30;horizontalStack=0;resizeParent=1;resizeParentMax=0;resizeLast=0;collapsible=1;marginBottom=0;whiteSpace=wrap;html=1;" parent="WIyWlLk6GJQsqaUBKTNV-1" vertex="1">
          <mxGeometry x="2394" y="-1800" width="210" height="90" as="geometry" />
        </mxCell>
        <mxCell id="XdSTU6Jku33HvT6-iugC-12" value="- các cột chứa image thì không được null" style="text;strokeColor=none;fillColor=none;align=left;verticalAlign=middle;spacingLeft=4;spacingRight=4;overflow=hidden;points=[[0,0.5],[1,0.5]];portConstraint=eastwest;rotatable=0;whiteSpace=wrap;html=1;" parent="XdSTU6Jku33HvT6-iugC-11" vertex="1">
          <mxGeometry y="30" width="210" height="30" as="geometry" />
        </mxCell>
        <mxCell id="XdSTU6Jku33HvT6-iugC-14" value="- khoá ngoại của account không được null" style="text;strokeColor=none;fillColor=none;align=left;verticalAlign=middle;spacingLeft=4;spacingRight=4;overflow=hidden;points=[[0,0.5],[1,0.5]];portConstraint=eastwest;rotatable=0;whiteSpace=wrap;html=1;" parent="XdSTU6Jku33HvT6-iugC-11" vertex="1">
          <mxGeometry y="60" width="210" height="30" as="geometry" />
        </mxCell>
        <mxCell id="XdSTU6Jku33HvT6-iugC-13" value="" style="endArrow=classic;html=1;rounded=0;elbow=vertical;" parent="WIyWlLk6GJQsqaUBKTNV-1" source="ZF2hxtfzH086-gN3r0IA-38" target="XdSTU6Jku33HvT6-iugC-11" edge="1">
          <mxGeometry width="50" height="50" relative="1" as="geometry">
            <mxPoint x="2375" y="-1743" as="sourcePoint" />
            <mxPoint x="2595" y="-1753" as="targetPoint" />
          </mxGeometry>
        </mxCell>
        <mxCell id="XdSTU6Jku33HvT6-iugC-19" value="điều kiện" style="swimlane;fontStyle=0;childLayout=stackLayout;horizontal=1;startSize=30;horizontalStack=0;resizeParent=1;resizeParentMax=0;resizeLast=0;collapsible=1;marginBottom=0;whiteSpace=wrap;html=1;" parent="WIyWlLk6GJQsqaUBKTNV-1" vertex="1">
          <mxGeometry x="464" y="-1860" width="250" height="120" as="geometry" />
        </mxCell>
        <mxCell id="XdSTU6Jku33HvT6-iugC-20" value="- name item không được null" style="text;strokeColor=none;fillColor=none;align=left;verticalAlign=middle;spacingLeft=4;spacingRight=4;overflow=hidden;points=[[0,0.5],[1,0.5]];portConstraint=eastwest;rotatable=0;whiteSpace=wrap;html=1;" parent="XdSTU6Jku33HvT6-iugC-19" vertex="1">
          <mxGeometry y="30" width="250" height="30" as="geometry" />
        </mxCell>
        <mxCell id="XdSTU6Jku33HvT6-iugC-21" value="- volume và weight không được null" style="text;strokeColor=none;fillColor=none;align=left;verticalAlign=middle;spacingLeft=4;spacingRight=4;overflow=hidden;points=[[0,0.5],[1,0.5]];portConstraint=eastwest;rotatable=0;whiteSpace=wrap;html=1;" parent="XdSTU6Jku33HvT6-iugC-19" vertex="1">
          <mxGeometry y="60" width="250" height="30" as="geometry" />
        </mxCell>
        <mxCell id="XdSTU6Jku33HvT6-iugC-22" value="- các cột chứa image không được null" style="text;strokeColor=none;fillColor=none;align=left;verticalAlign=middle;spacingLeft=4;spacingRight=4;overflow=hidden;points=[[0,0.5],[1,0.5]];portConstraint=eastwest;rotatable=0;whiteSpace=wrap;html=1;" parent="XdSTU6Jku33HvT6-iugC-19" vertex="1">
          <mxGeometry y="90" width="250" height="30" as="geometry" />
        </mxCell>
        <mxCell id="XdSTU6Jku33HvT6-iugC-23" value="" style="endArrow=classic;html=1;rounded=0;elbow=vertical;exitX=0.5;exitY=0;exitDx=0;exitDy=0;" parent="WIyWlLk6GJQsqaUBKTNV-1" source="ZF2hxtfzH086-gN3r0IA-159" target="XdSTU6Jku33HvT6-iugC-19" edge="1">
          <mxGeometry width="50" height="50" relative="1" as="geometry">
            <mxPoint x="484" y="-1775" as="sourcePoint" />
            <mxPoint x="694" y="-1880" as="targetPoint" />
          </mxGeometry>
        </mxCell>
        <mxCell id="rW63hfcLeEp5ZlImFfPp-17" value="LƯU Ý" style="swimlane;fontStyle=0;childLayout=stackLayout;horizontal=1;startSize=26;horizontalStack=0;resizeParent=1;resizeParentMax=0;resizeLast=0;collapsible=1;marginBottom=0;align=center;fontSize=14;fillColor=#e51400;strokeColor=#B20000;fontColor=#ffffff;" vertex="1" parent="WIyWlLk6GJQsqaUBKTNV-1">
          <mxGeometry x="1950" y="-2560" width="480" height="116" as="geometry" />
        </mxCell>
        <mxCell id="rW63hfcLeEp5ZlImFfPp-18" value="- tất cả kháo chính nếu không có ghi dữ liệu cụ thể thì mặc định là int và tự động tăng" style="text;strokeColor=none;fillColor=none;spacingLeft=4;spacingRight=4;overflow=hidden;rotatable=0;points=[[0,0.5],[1,0.5]];portConstraint=eastwest;fontSize=12;whiteSpace=wrap;html=1;" vertex="1" parent="rW63hfcLeEp5ZlImFfPp-17">
          <mxGeometry y="26" width="480" height="30" as="geometry" />
        </mxCell>
        <mxCell id="rW63hfcLeEp5ZlImFfPp-19" value="- với dấu mũi tên chỉ tới bảng điều khiển là điều kiện cần phải có trong database" style="text;strokeColor=none;fillColor=none;spacingLeft=4;spacingRight=4;overflow=hidden;rotatable=0;points=[[0,0.5],[1,0.5]];portConstraint=eastwest;fontSize=12;whiteSpace=wrap;html=1;" vertex="1" parent="rW63hfcLeEp5ZlImFfPp-17">
          <mxGeometry y="56" width="480" height="30" as="geometry" />
        </mxCell>
        <mxCell id="rW63hfcLeEp5ZlImFfPp-20" value="- bảng nào không có khoá chính thì đó chỉ là tên để biểu diễn mỗi quan hệ đó" style="text;strokeColor=none;fillColor=none;spacingLeft=4;spacingRight=4;overflow=hidden;rotatable=0;points=[[0,0.5],[1,0.5]];portConstraint=eastwest;fontSize=12;whiteSpace=wrap;html=1;" vertex="1" parent="rW63hfcLeEp5ZlImFfPp-17">
          <mxGeometry y="86" width="480" height="30" as="geometry" />
        </mxCell>
        <mxCell id="rW63hfcLeEp5ZlImFfPp-21" value="permission" style="swimlane;fontStyle=0;childLayout=stackLayout;horizontal=1;startSize=26;horizontalStack=0;resizeParent=1;resizeParentMax=0;resizeLast=0;collapsible=1;marginBottom=0;align=center;fontSize=14;fillColor=#1ba1e2;fontColor=#ffffff;strokeColor=#006EAF;" vertex="1" parent="WIyWlLk6GJQsqaUBKTNV-1">
          <mxGeometry x="2094" y="-2420" width="160" height="206" as="geometry" />
        </mxCell>
        <mxCell id="rW63hfcLeEp5ZlImFfPp-22" value="boss" style="text;strokeColor=none;fillColor=none;spacingLeft=4;spacingRight=4;overflow=hidden;rotatable=0;points=[[0,0.5],[1,0.5]];portConstraint=eastwest;fontSize=12;whiteSpace=wrap;html=1;" vertex="1" parent="rW63hfcLeEp5ZlImFfPp-21">
          <mxGeometry y="26" width="160" height="30" as="geometry" />
        </mxCell>
        <mxCell id="rW63hfcLeEp5ZlImFfPp-23" value="manager" style="text;strokeColor=none;fillColor=none;spacingLeft=4;spacingRight=4;overflow=hidden;rotatable=0;points=[[0,0.5],[1,0.5]];portConstraint=eastwest;fontSize=12;whiteSpace=wrap;html=1;" vertex="1" parent="rW63hfcLeEp5ZlImFfPp-21">
          <mxGeometry y="56" width="160" height="30" as="geometry" />
        </mxCell>
        <mxCell id="rW63hfcLeEp5ZlImFfPp-24" value="user" style="text;strokeColor=none;fillColor=none;spacingLeft=4;spacingRight=4;overflow=hidden;rotatable=0;points=[[0,0.5],[1,0.5]];portConstraint=eastwest;fontSize=12;whiteSpace=wrap;html=1;" vertex="1" parent="rW63hfcLeEp5ZlImFfPp-21">
          <mxGeometry y="86" width="160" height="30" as="geometry" />
        </mxCell>
        <mxCell id="rW63hfcLeEp5ZlImFfPp-26" value="shipper" style="text;strokeColor=none;fillColor=none;spacingLeft=4;spacingRight=4;overflow=hidden;rotatable=0;points=[[0,0.5],[1,0.5]];portConstraint=eastwest;fontSize=12;whiteSpace=wrap;html=1;" vertex="1" parent="rW63hfcLeEp5ZlImFfPp-21">
          <mxGeometry y="116" width="160" height="30" as="geometry" />
        </mxCell>
        <mxCell id="rW63hfcLeEp5ZlImFfPp-27" value="shop" style="text;strokeColor=none;fillColor=none;spacingLeft=4;spacingRight=4;overflow=hidden;rotatable=0;points=[[0,0.5],[1,0.5]];portConstraint=eastwest;fontSize=12;whiteSpace=wrap;html=1;" vertex="1" parent="rW63hfcLeEp5ZlImFfPp-21">
          <mxGeometry y="146" width="160" height="30" as="geometry" />
        </mxCell>
        <mxCell id="rW63hfcLeEp5ZlImFfPp-28" value="driver transit vehicle" style="text;strokeColor=none;fillColor=none;spacingLeft=4;spacingRight=4;overflow=hidden;rotatable=0;points=[[0,0.5],[1,0.5]];portConstraint=eastwest;fontSize=12;whiteSpace=wrap;html=1;" vertex="1" parent="rW63hfcLeEp5ZlImFfPp-21">
          <mxGeometry y="176" width="160" height="30" as="geometry" />
        </mxCell>
        <mxCell id="rW63hfcLeEp5ZlImFfPp-42" value="driver transit vehicle" style="shape=table;startSize=30;container=1;collapsible=1;childLayout=tableLayout;fixedRows=1;rowLines=0;fontStyle=1;align=center;resizeLast=1;html=1;" vertex="1" parent="WIyWlLk6GJQsqaUBKTNV-1">
          <mxGeometry x="3130" y="-1670" width="220" height="400" as="geometry" />
        </mxCell>
        <mxCell id="rW63hfcLeEp5ZlImFfPp-43" value="" style="shape=tableRow;horizontal=0;startSize=0;swimlaneHead=0;swimlaneBody=0;fillColor=none;collapsible=0;dropTarget=0;points=[[0,0.5],[1,0.5]];portConstraint=eastwest;top=0;left=0;right=0;bottom=1;" vertex="1" parent="rW63hfcLeEp5ZlImFfPp-42">
          <mxGeometry y="30" width="220" height="30" as="geometry" />
        </mxCell>
        <mxCell id="rW63hfcLeEp5ZlImFfPp-44" value="PK" style="shape=partialRectangle;connectable=0;fillColor=none;top=0;left=0;bottom=0;right=0;fontStyle=1;overflow=hidden;whiteSpace=wrap;html=1;" vertex="1" parent="rW63hfcLeEp5ZlImFfPp-43">
          <mxGeometry width="80" height="30" as="geometry">
            <mxRectangle width="80" height="30" as="alternateBounds" />
          </mxGeometry>
        </mxCell>
        <mxCell id="rW63hfcLeEp5ZlImFfPp-45" value="id driver" style="shape=partialRectangle;connectable=0;fillColor=none;top=0;left=0;bottom=0;right=0;align=left;spacingLeft=6;fontStyle=5;overflow=hidden;whiteSpace=wrap;html=1;" vertex="1" parent="rW63hfcLeEp5ZlImFfPp-43">
          <mxGeometry x="80" width="140" height="30" as="geometry">
            <mxRectangle width="140" height="30" as="alternateBounds" />
          </mxGeometry>
        </mxCell>
        <mxCell id="rW63hfcLeEp5ZlImFfPp-49" value="" style="shape=tableRow;horizontal=0;startSize=0;swimlaneHead=0;swimlaneBody=0;fillColor=none;collapsible=0;dropTarget=0;points=[[0,0.5],[1,0.5]];portConstraint=eastwest;top=0;left=0;right=0;bottom=0;" vertex="1" parent="rW63hfcLeEp5ZlImFfPp-42">
          <mxGeometry y="60" width="220" height="30" as="geometry" />
        </mxCell>
        <mxCell id="rW63hfcLeEp5ZlImFfPp-50" value="varchar(500)" style="shape=partialRectangle;connectable=0;fillColor=none;top=0;left=0;bottom=0;right=0;editable=1;overflow=hidden;whiteSpace=wrap;html=1;" vertex="1" parent="rW63hfcLeEp5ZlImFfPp-49">
          <mxGeometry width="80" height="30" as="geometry">
            <mxRectangle width="80" height="30" as="alternateBounds" />
          </mxGeometry>
        </mxCell>
        <mxCell id="rW63hfcLeEp5ZlImFfPp-51" value="image driver license" style="shape=partialRectangle;connectable=0;fillColor=none;top=0;left=0;bottom=0;right=0;align=left;spacingLeft=6;overflow=hidden;whiteSpace=wrap;html=1;" vertex="1" parent="rW63hfcLeEp5ZlImFfPp-49">
          <mxGeometry x="80" width="140" height="30" as="geometry">
            <mxRectangle width="140" height="30" as="alternateBounds" />
          </mxGeometry>
        </mxCell>
        <mxCell id="rW63hfcLeEp5ZlImFfPp-52" value="" style="shape=tableRow;horizontal=0;startSize=0;swimlaneHead=0;swimlaneBody=0;fillColor=none;collapsible=0;dropTarget=0;points=[[0,0.5],[1,0.5]];portConstraint=eastwest;top=0;left=0;right=0;bottom=0;" vertex="1" parent="rW63hfcLeEp5ZlImFfPp-42">
          <mxGeometry y="90" width="220" height="30" as="geometry" />
        </mxCell>
        <mxCell id="rW63hfcLeEp5ZlImFfPp-53" value="varchar(500)" style="shape=partialRectangle;connectable=0;fillColor=none;top=0;left=0;bottom=0;right=0;editable=1;overflow=hidden;whiteSpace=wrap;html=1;" vertex="1" parent="rW63hfcLeEp5ZlImFfPp-52">
          <mxGeometry width="80" height="30" as="geometry">
            <mxRectangle width="80" height="30" as="alternateBounds" />
          </mxGeometry>
        </mxCell>
        <mxCell id="rW63hfcLeEp5ZlImFfPp-54" value="image vehicle registration" style="shape=partialRectangle;connectable=0;fillColor=none;top=0;left=0;bottom=0;right=0;align=left;spacingLeft=6;overflow=hidden;whiteSpace=wrap;html=1;" vertex="1" parent="rW63hfcLeEp5ZlImFfPp-52">
          <mxGeometry x="80" width="140" height="30" as="geometry">
            <mxRectangle width="140" height="30" as="alternateBounds" />
          </mxGeometry>
        </mxCell>
        <mxCell id="rW63hfcLeEp5ZlImFfPp-55" value="" style="shape=tableRow;horizontal=0;startSize=0;swimlaneHead=0;swimlaneBody=0;fillColor=none;collapsible=0;dropTarget=0;points=[[0,0.5],[1,0.5]];portConstraint=eastwest;top=0;left=0;right=0;bottom=0;" vertex="1" parent="rW63hfcLeEp5ZlImFfPp-42">
          <mxGeometry y="120" width="220" height="30" as="geometry" />
        </mxCell>
        <mxCell id="rW63hfcLeEp5ZlImFfPp-56" value="varchar(500)" style="shape=partialRectangle;connectable=0;fillColor=none;top=0;left=0;bottom=0;right=0;editable=1;overflow=hidden;whiteSpace=wrap;html=1;" vertex="1" parent="rW63hfcLeEp5ZlImFfPp-55">
          <mxGeometry width="80" height="30" as="geometry">
            <mxRectangle width="80" height="30" as="alternateBounds" />
          </mxGeometry>
        </mxCell>
        <mxCell id="rW63hfcLeEp5ZlImFfPp-57" value="image Curriculum Vitae&amp;nbsp;" style="shape=partialRectangle;connectable=0;fillColor=none;top=0;left=0;bottom=0;right=0;align=left;spacingLeft=6;overflow=hidden;whiteSpace=wrap;html=1;" vertex="1" parent="rW63hfcLeEp5ZlImFfPp-55">
          <mxGeometry x="80" width="140" height="30" as="geometry">
            <mxRectangle width="140" height="30" as="alternateBounds" />
          </mxGeometry>
        </mxCell>
        <mxCell id="rW63hfcLeEp5ZlImFfPp-58" value="" style="shape=tableRow;horizontal=0;startSize=0;swimlaneHead=0;swimlaneBody=0;fillColor=none;collapsible=0;dropTarget=0;points=[[0,0.5],[1,0.5]];portConstraint=eastwest;top=0;left=0;right=0;bottom=0;" vertex="1" parent="rW63hfcLeEp5ZlImFfPp-42">
          <mxGeometry y="150" width="220" height="40" as="geometry" />
        </mxCell>
        <mxCell id="rW63hfcLeEp5ZlImFfPp-59" value="varchar(500)" style="shape=partialRectangle;connectable=0;fillColor=none;top=0;left=0;bottom=0;right=0;editable=1;overflow=hidden;whiteSpace=wrap;html=1;" vertex="1" parent="rW63hfcLeEp5ZlImFfPp-58">
          <mxGeometry width="80" height="40" as="geometry">
            <mxRectangle width="80" height="40" as="alternateBounds" />
          </mxGeometry>
        </mxCell>
        <mxCell id="rW63hfcLeEp5ZlImFfPp-60" value="image Civil Guarantee Letter" style="shape=partialRectangle;connectable=0;fillColor=none;top=0;left=0;bottom=0;right=0;align=left;spacingLeft=6;overflow=hidden;whiteSpace=wrap;html=1;" vertex="1" parent="rW63hfcLeEp5ZlImFfPp-58">
          <mxGeometry x="80" width="140" height="40" as="geometry">
            <mxRectangle width="140" height="40" as="alternateBounds" />
          </mxGeometry>
        </mxCell>
        <mxCell id="rW63hfcLeEp5ZlImFfPp-61" value="" style="shape=tableRow;horizontal=0;startSize=0;swimlaneHead=0;swimlaneBody=0;fillColor=none;collapsible=0;dropTarget=0;points=[[0,0.5],[1,0.5]];portConstraint=eastwest;top=0;left=0;right=0;bottom=0;" vertex="1" parent="rW63hfcLeEp5ZlImFfPp-42">
          <mxGeometry y="190" width="220" height="40" as="geometry" />
        </mxCell>
        <mxCell id="rW63hfcLeEp5ZlImFfPp-62" value="varchar(500)" style="shape=partialRectangle;connectable=0;fillColor=none;top=0;left=0;bottom=0;right=0;editable=1;overflow=hidden;whiteSpace=wrap;html=1;" vertex="1" parent="rW63hfcLeEp5ZlImFfPp-61">
          <mxGeometry width="80" height="40" as="geometry">
            <mxRectangle width="80" height="40" as="alternateBounds" />
          </mxGeometry>
        </mxCell>
        <mxCell id="rW63hfcLeEp5ZlImFfPp-63" value="image Certificate of No Criminal Record" style="shape=partialRectangle;connectable=0;fillColor=none;top=0;left=0;bottom=0;right=0;align=left;spacingLeft=6;overflow=hidden;whiteSpace=wrap;html=1;" vertex="1" parent="rW63hfcLeEp5ZlImFfPp-61">
          <mxGeometry x="80" width="140" height="40" as="geometry">
            <mxRectangle width="140" height="40" as="alternateBounds" />
          </mxGeometry>
        </mxCell>
        <mxCell id="rW63hfcLeEp5ZlImFfPp-64" value="" style="shape=tableRow;horizontal=0;startSize=0;swimlaneHead=0;swimlaneBody=0;fillColor=none;collapsible=0;dropTarget=0;points=[[0,0.5],[1,0.5]];portConstraint=eastwest;top=0;left=0;right=0;bottom=0;" vertex="1" parent="rW63hfcLeEp5ZlImFfPp-42">
          <mxGeometry y="230" width="220" height="30" as="geometry" />
        </mxCell>
        <mxCell id="rW63hfcLeEp5ZlImFfPp-65" value="varchar(500)" style="shape=partialRectangle;connectable=0;fillColor=none;top=0;left=0;bottom=0;right=0;editable=1;overflow=hidden;whiteSpace=wrap;html=1;" vertex="1" parent="rW63hfcLeEp5ZlImFfPp-64">
          <mxGeometry width="80" height="30" as="geometry">
            <mxRectangle width="80" height="30" as="alternateBounds" />
          </mxGeometry>
        </mxCell>
        <mxCell id="rW63hfcLeEp5ZlImFfPp-66" value="image&amp;nbsp;Birth Certificate" style="shape=partialRectangle;connectable=0;fillColor=none;top=0;left=0;bottom=0;right=0;align=left;spacingLeft=6;overflow=hidden;whiteSpace=wrap;html=1;" vertex="1" parent="rW63hfcLeEp5ZlImFfPp-64">
          <mxGeometry x="80" width="140" height="30" as="geometry">
            <mxRectangle width="140" height="30" as="alternateBounds" />
          </mxGeometry>
        </mxCell>
        <mxCell id="rW63hfcLeEp5ZlImFfPp-67" value="" style="shape=tableRow;horizontal=0;startSize=0;swimlaneHead=0;swimlaneBody=0;fillColor=none;collapsible=0;dropTarget=0;points=[[0,0.5],[1,0.5]];portConstraint=eastwest;top=0;left=0;right=0;bottom=0;" vertex="1" parent="rW63hfcLeEp5ZlImFfPp-42">
          <mxGeometry y="260" width="220" height="40" as="geometry" />
        </mxCell>
        <mxCell id="rW63hfcLeEp5ZlImFfPp-68" value="varchar(500)" style="shape=partialRectangle;connectable=0;fillColor=none;top=0;left=0;bottom=0;right=0;editable=1;overflow=hidden;whiteSpace=wrap;html=1;" vertex="1" parent="rW63hfcLeEp5ZlImFfPp-67">
          <mxGeometry width="80" height="40" as="geometry">
            <mxRectangle width="80" height="40" as="alternateBounds" />
          </mxGeometry>
        </mxCell>
        <mxCell id="rW63hfcLeEp5ZlImFfPp-69" value="image&amp;nbsp;Household Registration" style="shape=partialRectangle;connectable=0;fillColor=none;top=0;left=0;bottom=0;right=0;align=left;spacingLeft=6;overflow=hidden;whiteSpace=wrap;html=1;" vertex="1" parent="rW63hfcLeEp5ZlImFfPp-67">
          <mxGeometry x="80" width="140" height="40" as="geometry">
            <mxRectangle width="140" height="40" as="alternateBounds" />
          </mxGeometry>
        </mxCell>
        <mxCell id="rW63hfcLeEp5ZlImFfPp-70" value="" style="shape=tableRow;horizontal=0;startSize=0;swimlaneHead=0;swimlaneBody=0;fillColor=none;collapsible=0;dropTarget=0;points=[[0,0.5],[1,0.5]];portConstraint=eastwest;top=0;left=0;right=0;bottom=0;" vertex="1" parent="rW63hfcLeEp5ZlImFfPp-42">
          <mxGeometry y="300" width="220" height="40" as="geometry" />
        </mxCell>
        <mxCell id="rW63hfcLeEp5ZlImFfPp-71" value="varchar(500)" style="shape=partialRectangle;connectable=0;fillColor=none;top=0;left=0;bottom=0;right=0;editable=1;overflow=hidden;whiteSpace=wrap;html=1;" vertex="1" parent="rW63hfcLeEp5ZlImFfPp-70">
          <mxGeometry width="80" height="40" as="geometry">
            <mxRectangle width="80" height="40" as="alternateBounds" />
          </mxGeometry>
        </mxCell>
        <mxCell id="rW63hfcLeEp5ZlImFfPp-72" value="image&amp;nbsp;Health Examination Certificate" style="shape=partialRectangle;connectable=0;fillColor=none;top=0;left=0;bottom=0;right=0;align=left;spacingLeft=6;overflow=hidden;whiteSpace=wrap;html=1;" vertex="1" parent="rW63hfcLeEp5ZlImFfPp-70">
          <mxGeometry x="80" width="140" height="40" as="geometry">
            <mxRectangle width="140" height="40" as="alternateBounds" />
          </mxGeometry>
        </mxCell>
        <mxCell id="rW63hfcLeEp5ZlImFfPp-73" value="" style="shape=tableRow;horizontal=0;startSize=0;swimlaneHead=0;swimlaneBody=0;fillColor=none;collapsible=0;dropTarget=0;points=[[0,0.5],[1,0.5]];portConstraint=eastwest;top=0;left=0;right=0;bottom=0;" vertex="1" parent="rW63hfcLeEp5ZlImFfPp-42">
          <mxGeometry y="340" width="220" height="30" as="geometry" />
        </mxCell>
        <mxCell id="rW63hfcLeEp5ZlImFfPp-74" value="varchar(500)" style="shape=partialRectangle;connectable=0;fillColor=none;top=0;left=0;bottom=0;right=0;editable=1;overflow=hidden;whiteSpace=wrap;html=1;" vertex="1" parent="rW63hfcLeEp5ZlImFfPp-73">
          <mxGeometry width="80" height="30" as="geometry">
            <mxRectangle width="80" height="30" as="alternateBounds" />
          </mxGeometry>
        </mxCell>
        <mxCell id="rW63hfcLeEp5ZlImFfPp-75" value="image&amp;nbsp;Health Examination Certificate" style="shape=partialRectangle;connectable=0;fillColor=none;top=0;left=0;bottom=0;right=0;align=left;spacingLeft=6;overflow=hidden;whiteSpace=wrap;html=1;" vertex="1" parent="rW63hfcLeEp5ZlImFfPp-73">
          <mxGeometry x="80" width="140" height="30" as="geometry">
            <mxRectangle width="140" height="30" as="alternateBounds" />
          </mxGeometry>
        </mxCell>
        <mxCell id="rW63hfcLeEp5ZlImFfPp-76" value="" style="shape=tableRow;horizontal=0;startSize=0;swimlaneHead=0;swimlaneBody=0;fillColor=none;collapsible=0;dropTarget=0;points=[[0,0.5],[1,0.5]];portConstraint=eastwest;top=0;left=0;right=0;bottom=0;" vertex="1" parent="rW63hfcLeEp5ZlImFfPp-42">
          <mxGeometry y="370" width="220" height="30" as="geometry" />
        </mxCell>
        <mxCell id="rW63hfcLeEp5ZlImFfPp-77" value="boolean" style="shape=partialRectangle;connectable=0;fillColor=none;top=0;left=0;bottom=0;right=0;editable=1;overflow=hidden;whiteSpace=wrap;html=1;" vertex="1" parent="rW63hfcLeEp5ZlImFfPp-76">
          <mxGeometry width="80" height="30" as="geometry">
            <mxRectangle width="80" height="30" as="alternateBounds" />
          </mxGeometry>
        </mxCell>
        <mxCell id="rW63hfcLeEp5ZlImFfPp-78" value="status" style="shape=partialRectangle;connectable=0;fillColor=none;top=0;left=0;bottom=0;right=0;align=left;spacingLeft=6;overflow=hidden;whiteSpace=wrap;html=1;" vertex="1" parent="rW63hfcLeEp5ZlImFfPp-76">
          <mxGeometry x="80" width="140" height="30" as="geometry">
            <mxRectangle width="140" height="30" as="alternateBounds" />
          </mxGeometry>
        </mxCell>
        <mxCell id="rW63hfcLeEp5ZlImFfPp-79" value="điều kiện" style="swimlane;fontStyle=0;childLayout=stackLayout;horizontal=1;startSize=30;horizontalStack=0;resizeParent=1;resizeParentMax=0;resizeLast=0;collapsible=1;marginBottom=0;whiteSpace=wrap;html=1;" vertex="1" parent="WIyWlLk6GJQsqaUBKTNV-1">
          <mxGeometry x="3550" y="-1605" width="250" height="60" as="geometry" />
        </mxCell>
        <mxCell id="rW63hfcLeEp5ZlImFfPp-81" value="- các cột chứa image không được null" style="text;strokeColor=none;fillColor=none;align=left;verticalAlign=middle;spacingLeft=4;spacingRight=4;overflow=hidden;points=[[0,0.5],[1,0.5]];portConstraint=eastwest;rotatable=0;whiteSpace=wrap;html=1;" vertex="1" parent="rW63hfcLeEp5ZlImFfPp-79">
          <mxGeometry y="30" width="250" height="30" as="geometry" />
        </mxCell>
        <mxCell id="rW63hfcLeEp5ZlImFfPp-83" value="" style="endArrow=classic;html=1;rounded=0;elbow=vertical;entryX=0;entryY=0.5;entryDx=0;entryDy=0;" edge="1" parent="WIyWlLk6GJQsqaUBKTNV-1" source="rW63hfcLeEp5ZlImFfPp-42" target="rW63hfcLeEp5ZlImFfPp-79">
          <mxGeometry width="50" height="50" relative="1" as="geometry">
            <mxPoint x="3305" y="-1910" as="sourcePoint" />
            <mxPoint x="3355" y="-1960" as="targetPoint" />
          </mxGeometry>
        </mxCell>
        <mxCell id="rW63hfcLeEp5ZlImFfPp-84" value="" style="edgeStyle=entityRelationEdgeStyle;fontSize=12;html=1;endArrow=ERmandOne;startArrow=ERmandOne;rounded=0;" edge="1" parent="WIyWlLk6GJQsqaUBKTNV-1" source="ZF2hxtfzH086-gN3r0IA-118" target="rW63hfcLeEp5ZlImFfPp-42">
          <mxGeometry width="100" height="100" relative="1" as="geometry">
            <mxPoint x="3200" y="-1570" as="sourcePoint" />
            <mxPoint x="3300" y="-1670" as="targetPoint" />
          </mxGeometry>
        </mxCell>
      </root>
    </mxGraphModel>
  </diagram>
</mxfile>
